<svg width="50" height="50" viewBox="0 0 50 50" fill="none" xmlns="http://www.w3.org/2000/svg">
<g clip-path="url(#clip0)">
<path d="M44.6289 50H23.1445C20.1829 50 17.7734 47.5905 17.7734 44.6289V19.2383C17.7734 18.9214 17.8763 18.613 18.0664 18.3594L26.8555 6.64062C27.1321 6.27178 27.5662 6.05469 28.0273 6.05469H39.7461C40.2072 6.05469 40.6413 6.27178 40.918 6.64062L49.707 18.3594C49.8972 18.613 50 18.9214 50 19.2383V44.6289C50 47.5905 47.5905 50 44.6289 50Z" fill="#FF8659"/>
<path d="M49.707 18.3594L40.918 6.64062C40.6413 6.27178 40.2072 6.05469 39.7461 6.05469H33.8867V50H44.6289C47.5905 50 50 47.5905 50 44.6289V19.2383C50 18.9214 49.8972 18.613 49.707 18.3594Z" fill="#FF6326" fill-opacity="0.75"/>
<path d="M16.7617 43.2432L1.56995 28.0514C-0.524292 25.9571 -0.524292 22.5497 1.56995 20.4555L19.5238 2.50168C19.748 2.27756 20.0387 2.13224 20.3525 2.08732L34.8537 0.0157391C35.3102 -0.0494953 35.7706 0.10402 36.0967 0.430095L44.3831 8.71652C44.7092 9.04259 44.8626 9.50304 44.7975 9.95949L42.7259 24.4607C42.6811 24.7744 42.5357 25.0653 42.3115 25.2893L24.3576 43.2432C22.2634 45.3373 18.8559 45.3373 16.7617 43.2432Z" fill="#FFF16B"/>
<path d="M42.7265 24.4598L44.7981 9.9586C44.8633 9.50215 44.7098 9.0417 44.3838 8.71563L40.2406 4.57246L9.16656 35.6464L16.7625 43.2423C18.8567 45.3365 22.2641 45.3365 24.3584 43.2423L42.3123 25.2884C42.5363 25.0643 42.6817 24.7735 42.7265 24.4598V24.4598Z" fill="#FFB454" fill-opacity="0.31"/>
<path d="M17.4535 34.2663C17.0735 33.8863 16.9176 33.3107 17.0991 32.7663L24.0045 12.0503C24.2602 11.2828 25.0898 10.868 25.8573 11.1238C26.6251 11.3796 27.0395 12.2091 26.7838 12.9767L19.8784 33.6927C19.6226 34.4601 18.7931 34.875 18.0256 34.6191C17.8024 34.5448 17.6092 34.422 17.4535 34.2663Z" fill="#FF7038" fill-opacity="0.73"/>
<path d="M34.0272 19.7627C32.313 18.0484 29.5238 18.0484 27.8096 19.7627C26.0953 21.4769 26.0953 24.2661 27.8096 25.9804C29.5238 27.6946 32.313 27.6946 34.0272 25.9804C35.7415 24.2661 35.7415 21.4768 34.0272 19.7627ZM31.9547 23.9078C31.3833 24.4792 30.4535 24.4792 29.8821 23.9078C29.3107 23.3364 29.3107 22.4066 29.8821 21.8352C30.4535 21.2639 31.3833 21.2639 31.9547 21.8352C32.5261 22.4066 32.5262 23.3363 31.9547 23.9078V23.9078Z" fill="#FF405C" fill-opacity="0.43"/>
<path d="M16.0734 19.7627C14.3591 18.0484 11.57 18.0484 9.8557 19.7627C8.14144 21.4769 8.14144 24.2661 9.8557 25.9804C11.57 27.6946 14.3591 27.6946 16.0734 25.9804C17.7876 24.2661 17.7876 21.4768 16.0734 19.7627ZM14.0008 23.9078C13.4294 24.4792 12.4996 24.4792 11.9283 23.9078C11.3569 23.3364 11.3569 22.4066 11.9283 21.8352C12.4996 21.2639 13.4294 21.2639 14.0008 21.8352C14.5722 22.4066 14.5722 23.3363 14.0008 23.9078V23.9078Z" fill="#FF7038" fill-opacity="0.73"/>
<path d="M19.8783 33.6927L24.2575 20.5554L19.6253 25.1875L17.099 32.7662C16.9175 33.3106 17.0735 33.8862 17.4534 34.2662C17.6091 34.4219 17.8024 34.5447 18.0254 34.619C18.793 34.8751 19.6226 34.4602 19.8783 33.6927Z" fill="#FF405C" fill-opacity="0.43"/>
<path d="M44.3837 0.429025C43.8117 -0.142947 42.8842 -0.142947 42.3121 0.429025L34.0258 8.71545L36.0974 10.787L44.3837 2.50061C44.9559 1.92863 44.9559 1.001 44.3837 0.429025V0.429025Z" fill="#00429B"/>
<path d="M44.3838 2.5006C44.9558 1.92863 44.9559 1.00109 44.3838 0.429016L35.0616 9.75119L36.0974 10.787L44.3838 2.5006Z" fill="#002659"/>
<path d="M37.1333 13.2877C36.7584 13.2877 36.3835 13.1446 36.0975 12.8586L31.9543 8.71533C31.3822 8.14336 31.3822 7.21582 31.9543 6.64375C32.5262 6.07177 33.4538 6.07177 34.0258 6.64375L38.1691 10.787C38.7412 11.359 38.7412 12.2865 38.1691 12.8586C37.8831 13.1446 37.5082 13.2877 37.1333 13.2877Z" fill="#FF8659"/>
<path d="M38.1691 10.787L36.0975 8.71542L34.0259 10.787L36.0975 12.8586C36.3836 13.1446 36.7585 13.2877 37.1333 13.2877C37.5082 13.2877 37.8831 13.1446 38.169 12.8586C38.7412 12.2866 38.7412 11.3591 38.1691 10.787V10.787Z" fill="#FF6326" fill-opacity="0.75"/>
</g>
<defs>
<clipPath id="clip0">
<rect width="50" height="50" fill="white"/>
</clipPath>
</defs>
</svg>
