<svg width="378" height="35" viewBox="0 0 378 35" fill="none" xmlns="http://www.w3.org/2000/svg">
<path d="M0 17.5C0 7.83502 7.83502 0 17.5 0H360.5C370.165 0 378 7.83502 378 17.5C378 27.165 370.165 35 360.5 35H17.5C7.83502 35 0 27.165 0 17.5Z" fill="#9EC0DA"/>
<path d="M175.064 24H172.856V13.12H175.064V17.904L176.536 17.744L178.328 13.12H180.84L178.472 18.576L180.904 24H178.36L176.536 19.664L175.064 19.824V24ZM183.643 20.912C183.653 21.4027 183.781 21.76 184.027 21.984C184.283 22.1973 184.645 22.304 185.115 22.304C186.107 22.304 186.992 22.272 187.771 22.208L188.219 22.16L188.251 23.744C187.024 24.0427 185.915 24.192 184.923 24.192C183.717 24.192 182.843 23.872 182.299 23.232C181.755 22.592 181.483 21.552 181.483 20.112C181.483 17.2427 182.661 15.808 185.019 15.808C187.344 15.808 188.507 17.0133 188.507 19.424L188.347 20.912H183.643ZM186.395 19.28C186.395 18.64 186.293 18.1973 186.091 17.952C185.888 17.696 185.531 17.568 185.019 17.568C184.517 17.568 184.16 17.7013 183.947 17.968C183.744 18.224 183.637 18.6613 183.627 19.28H186.395ZM190.135 24V12.8H192.279V24H190.135ZM199.071 16H201.215V24H199.087V23.552C198.319 23.9787 197.653 24.192 197.087 24.192C195.978 24.192 195.231 23.888 194.847 23.28C194.463 22.6613 194.271 21.632 194.271 20.192V16H196.415V20.224C196.415 21.0133 196.479 21.552 196.607 21.84C196.735 22.128 197.045 22.272 197.535 22.272C198.005 22.272 198.447 22.1973 198.863 22.048L199.071 21.984V16ZM209.323 18.496V21.824C209.344 22.08 209.387 22.2613 209.451 22.368C209.515 22.464 209.648 22.5333 209.851 22.576L209.787 24.192C209.243 24.192 208.806 24.1547 208.475 24.08C208.155 24.0053 207.83 23.856 207.499 23.632C206.731 24.0053 205.947 24.192 205.147 24.192C203.494 24.192 202.667 23.3173 202.667 21.568C202.667 20.7147 202.896 20.112 203.355 19.76C203.814 19.3973 204.518 19.184 205.467 19.12L207.179 18.992V18.496C207.179 18.1653 207.104 17.9413 206.955 17.824C206.806 17.696 206.566 17.632 206.235 17.632L203.227 17.76L203.163 16.272C204.304 15.9627 205.387 15.808 206.411 15.808C207.446 15.808 208.187 16.0213 208.635 16.448C209.094 16.8747 209.323 17.5573 209.323 18.496ZM205.723 20.608C205.126 20.6613 204.827 20.9813 204.827 21.568C204.827 22.1547 205.088 22.448 205.611 22.448C206.016 22.448 206.459 22.384 206.939 22.256L207.179 22.192V20.48L205.723 20.608ZM211.367 24V16H213.495V16.848C214.391 16.3147 215.244 15.968 216.055 15.808V17.968C215.191 18.1493 214.45 18.336 213.831 18.528L213.511 18.64V24H211.367Z" fill="white"/>
</svg>
