<svg width="50" height="50" viewBox="0 0 50 50" fill="none" xmlns="http://www.w3.org/2000/svg">
<g clip-path="url(#clip0)">
<path d="M40.7565 38.2286C40.9577 38.2286 41.1279 38.0802 41.1552 37.8809L41.5849 34.7483C41.8159 33.068 42.556 31.4988 43.7055 30.2517L44.073 29.8529C45.2383 28.5887 46.1686 27.1267 46.8201 25.5356L49.8531 18.1285C50.3762 16.8509 49.4366 15.4507 48.056 15.4507H48.0142C47.3754 15.4507 46.7852 15.7487 46.4126 16.2541C45.5048 17.485 43.7969 19.8007 43.0518 20.811C42.9366 20.9673 42.6887 20.8858 42.6887 20.6916V18.5428V7.02179C42.6887 5.93273 41.8057 5.04991 40.7165 5.04991C39.6272 5.04991 38.7442 5.93273 38.7442 7.02179V16.5709V3.6588C38.7442 2.58946 37.9126 1.67862 36.8439 1.64064C35.7219 1.60079 34.7998 2.49835 34.7998 3.61124V16.5708V7.02179C34.7998 5.93273 33.9169 5.04991 32.8279 5.04991H32.8272C31.7381 5.04991 30.8553 5.93273 30.8553 7.02179V16.571V10.4832C30.8553 9.43683 30.0611 8.5337 29.0168 8.46476C28.4199 8.4253 27.8747 8.65206 27.4894 9.03878C27.1318 9.39503 26.9109 9.888 26.9109 10.4322V19.1784C26.9109 20.0631 27.0579 20.9416 27.3459 21.7781L29.3767 27.6766C29.6772 28.5493 29.8306 29.466 29.8306 30.3892V37.8262C29.8306 38.0485 30.0108 38.2286 30.2331 38.2286H40.7565Z" fill="#FED2A4"/>
<path d="M42.6886 21.7063V7.07453C42.6886 5.98976 41.8018 5.05021 40.7171 5.04982C40.3068 5.04972 39.9259 5.17502 39.6102 5.38918C40.1328 5.74386 40.4762 6.34259 40.4762 7.0216V18.5427V21.7062C40.4762 22.3171 40.9716 22.8124 41.5824 22.8124C42.1934 22.8125 42.6886 22.3172 42.6886 21.7063V21.7063Z" fill="#FFE4D1"/>
<path d="M38.7442 16.4789V3.66104C38.7442 2.60322 37.9317 1.69609 36.8752 1.64209C36.4226 1.61895 36.0026 1.7501 35.6593 1.98535C36.1878 2.35215 36.5319 2.97207 36.5319 3.65879V16.4789C36.5319 17.0898 37.0272 17.5852 37.6381 17.5852C38.2489 17.5851 38.7442 17.0898 38.7442 16.4789V16.4789Z" fill="#FFE4D1"/>
<path d="M34.7998 16.8767V7.07696C34.7998 6.01915 33.9872 5.11202 32.9308 5.05801C32.4781 5.03487 32.058 5.16602 31.7148 5.40128C32.2434 5.76798 32.5874 6.388 32.5874 7.07471V16.8767C32.5874 17.4876 33.0827 17.9828 33.6936 17.9828C34.3046 17.9829 34.7998 17.4876 34.7998 16.8767V16.8767Z" fill="#FFE4D1"/>
<path d="M30.8552 17.2635V10.4818C30.8552 9.42402 30.0426 8.5169 28.9862 8.46289C28.5335 8.43975 28.1134 8.5709 27.7703 8.80615C28.2988 9.17295 28.6428 9.79287 28.6428 10.4796V17.2634C28.6428 17.8743 29.1381 18.3696 29.7491 18.3696C30.3599 18.3696 30.8552 17.8744 30.8552 17.2635V17.2635Z" fill="#FFE4D1"/>
<path d="M48.056 15.4507H48.0142C47.6168 15.4507 47.2384 15.5661 46.9192 15.7749C47.6493 16.263 48.0102 17.226 47.6406 18.1284L44.6076 25.5356C43.9561 27.1267 43.0258 28.5887 41.8605 29.8529L41.4931 30.2517C40.3435 31.4988 39.6034 33.0681 39.3724 34.7482L38.9427 37.881C38.9153 38.0802 38.7451 38.2286 38.5439 38.2286H40.7563C40.9574 38.2286 41.1277 38.0802 41.1551 37.881L41.5848 34.7482C41.8157 33.0681 42.5559 31.4988 43.7055 30.2517L44.0729 29.8529C45.2383 28.5888 46.1686 27.1267 46.82 25.5356L49.853 18.1284C50.3763 16.8508 49.4366 15.4507 48.056 15.4507V15.4507Z" fill="#FFE4D1"/>
<path d="M9.24347 38.2286C9.0423 38.2286 8.87208 38.0802 8.84474 37.8809L8.41505 34.7483C8.1841 33.068 7.44396 31.4988 6.29445 30.2517L5.92697 29.8529C4.76164 28.5887 3.83136 27.1267 3.1799 25.5356L0.146791 18.1285C-0.376353 16.8509 0.563295 15.4507 1.94386 15.4507H1.98566C2.62443 15.4507 3.21456 15.7487 3.58732 16.2541C4.49503 17.485 6.20294 19.8007 6.94806 20.811C7.0633 20.9673 7.31115 20.8858 7.31115 20.6916V18.5428V7.02179C7.31115 5.93273 8.19415 5.04991 9.28341 5.04991C10.3727 5.04991 11.2557 5.93273 11.2557 7.02179V16.5709V3.6588C11.2557 2.58946 12.0872 1.67862 13.156 1.64064C14.2779 1.60079 15.2001 2.49835 15.2001 3.61124V16.5708V7.02179C15.2001 5.93273 16.0829 5.04991 17.172 5.04991H17.1727C18.2617 5.04991 19.1445 5.93273 19.1445 7.02179V16.571V10.4832C19.1445 9.43683 19.9388 8.5337 20.983 8.46476C21.58 8.4253 22.1252 8.65206 22.5105 9.03878C22.8681 9.39503 23.089 9.888 23.089 10.4322V19.1784C23.089 20.0631 22.942 20.9416 22.654 21.7781L20.6232 27.6766C20.3227 28.5493 20.1693 29.466 20.1693 30.3892V37.8262C20.1693 38.0485 19.9891 38.2286 19.7668 38.2286H9.24347Z" fill="#FED2A4"/>
<path d="M11.2557 7.02179C11.2557 5.93282 10.3727 5.04991 9.28341 5.04991C8.87325 5.04991 8.49259 5.1752 8.17706 5.38936C8.69962 5.74405 9.04298 6.34278 9.04298 7.02179V17.1791C9.04298 17.79 9.53829 18.2853 10.1492 18.2853C10.7602 18.2853 11.2554 17.79 11.2554 17.1791L11.2557 7.02179Z" fill="#FFE4D1"/>
<path d="M15.2001 7.02178V3.61133C15.2001 2.49844 14.2779 1.60088 13.156 1.64073C12.7707 1.6544 12.4172 1.78282 12.1214 1.98985C12.6463 2.35713 12.9878 2.97471 12.9878 3.65879V16.4789C12.9878 17.0898 13.4831 17.5852 14.0941 17.5852C14.705 17.5852 15.2002 17.0898 15.2002 16.4789L15.2001 7.02178Z" fill="#FFE4D1"/>
<path d="M19.1446 10.4831V7.02179C19.1446 5.93282 18.2618 5.04991 17.1727 5.04991H17.172C16.7909 5.04991 16.4363 5.15987 16.1347 5.34708C16.1051 5.36925 16.0797 5.3878 16.06 5.40138C16.5885 5.76817 16.9326 6.3881 16.9326 7.07481V16.8768C16.9326 17.4877 17.4279 17.9829 18.0388 17.9829C18.6497 17.9829 19.145 17.4877 19.145 16.8768L19.1446 10.4831Z" fill="#FFE4D1"/>
<path d="M20.983 8.46466C20.6349 8.48761 20.3156 8.605 20.0432 8.78781C20.0356 8.79425 20.028 8.80099 20.0204 8.80617C20.549 9.17296 20.893 9.79289 20.893 10.4796V17.2634C20.893 17.8743 21.3882 18.3695 21.9992 18.3695C22.5478 18.3695 23.0018 17.9697 23.0891 17.4459V10.432C23.0891 9.88781 22.8682 9.39484 22.5106 9.03859C22.1252 8.65207 21.58 8.42521 20.983 8.46466V8.46466Z" fill="#FFE4D1"/>
<path d="M16.7589 29.7742L13.688 32.0915C13.3767 32.3265 12.9332 32.2546 12.7113 31.9332L9.92541 27.8995C9.74866 27.6436 9.76467 27.3004 9.96448 27.0622L14.6987 21.4182L16.7589 29.7742Z" fill="#B3DAFE"/>
<path d="M32.972 29.7742L36.0429 32.0915C36.3543 32.3265 36.7977 32.2546 37.0197 31.9332L39.8055 27.8995C39.9823 27.6436 39.9663 27.3004 39.7665 27.0622L35.0322 21.4182L32.972 29.7742Z" fill="#B3DAFE"/>
<path d="M16.7589 47.671V30.1106C16.7589 29.8872 16.7319 29.6646 16.6785 29.4478L14.699 21.4182L19.7155 19.3493H30.0156L35.0321 21.4182L33.0526 29.4478C32.9992 29.6647 32.9721 29.8872 32.9721 30.1106V47.671C32.9721 48.0519 32.6647 48.3606 32.2854 48.3606H17.4457C17.0664 48.3606 16.7589 48.0519 16.7589 47.671V47.671Z" fill="#9EC0DA"/>
<path d="M30.0156 19.3493H19.7155L19.6945 19.358C19.7372 21.1822 22.0352 22.6528 24.8656 22.6528C27.6958 22.6528 29.9939 21.1822 30.0366 19.358L30.0156 19.3493Z" fill="#B3DAFE"/>
</g>
<defs>
<clipPath id="clip0">
<rect width="50" height="50" fill="white"/>
</clipPath>
</defs>
</svg>
