<svg width="50" height="50" viewBox="0 0 50 50" fill="none" xmlns="http://www.w3.org/2000/svg">
<g clip-path="url(#clip0)">
<path d="M12.9276 19.1162C12.5108 19.1162 12.1731 18.7784 12.1731 18.3617V15.1291C12.1731 14.7124 12.5109 14.3746 12.9276 14.3746C13.3444 14.3746 13.682 14.7124 13.682 15.1291V18.3617C13.6821 18.7784 13.3444 19.1162 12.9276 19.1162Z" fill="#DEDBEE"/>
<path d="M37.0725 19.1162C36.6557 19.1162 36.318 18.7784 36.318 18.3617V15.1291C36.318 14.7124 36.6558 14.3746 37.0725 14.3746C37.4893 14.3746 37.827 14.7124 37.827 15.1291V18.3617C37.827 18.7784 37.4892 19.1162 37.0725 19.1162Z" fill="#DEDBEE"/>
<path d="M3.01807 21.3798H46.9818V46.9819H3.01807V21.3798Z" fill="#F3EAE6"/>
<path d="M43.9638 21.3798V28.6478C43.9638 37.94 36.431 45.4729 27.1387 45.4729H3.01807V46.9819H46.9818V21.3798H43.9638Z" fill="#9EC0DA"/>
<path d="M49.497 50H0.503027C0.225195 50 0 49.7748 0 49.497V47.4849C0 47.207 0.225195 46.9818 0.503027 46.9818H49.497C49.7748 46.9818 50 47.207 50 47.4849V49.497C50 49.7748 49.7748 50 49.497 50Z" fill="#B5ADB6"/>
<path d="M49.497 46.9819H46.4789C46.7567 46.9819 46.9819 47.2071 46.9819 47.485V49.4971C46.9819 49.7749 46.7567 50.0001 46.4789 50.0001H49.497C49.7748 50.0001 50 49.7749 50 49.4971V47.485C50 47.2071 49.7748 46.9819 49.497 46.9819V46.9819Z" fill="#A79BA7"/>
<path d="M49.497 21.3798H0.503027C0.225195 21.3798 0 21.1546 0 20.8768V18.8646C0 18.5868 0.225195 18.3616 0.503027 18.3616H49.497C49.7748 18.3616 50 18.5868 50 18.8646V20.8768C50 21.1546 49.7748 21.3798 49.497 21.3798V21.3798Z" fill="#B5ADB6"/>
<path d="M49.497 18.3617H46.4789C46.7567 18.3617 46.9819 18.5869 46.9819 18.8648V20.8769C46.9819 21.1547 46.7567 21.3799 46.4789 21.3799H49.497C49.7748 21.3799 50 21.1547 50 20.8769V18.8648C50 18.5868 49.7748 18.3617 49.497 18.3617V18.3617Z" fill="#A79BA7"/>
<path d="M39.0341 15.1291H10.9658C10.4102 15.1291 9.95975 14.6787 9.95975 14.123V1.00605C9.95975 0.450391 10.4101 0 10.9658 0H39.0341C39.5897 0 40.0402 0.450391 40.0402 1.00605V14.123C40.0402 14.6787 39.5898 15.1291 39.0341 15.1291Z" fill="#9EC0DA"/>
<path d="M39.0342 0H36.0161C36.5718 0 37.0222 0.450391 37.0222 1.00605V14.123C37.0222 14.6787 36.5718 15.1291 36.0161 15.1291H39.0342C39.5898 15.1291 40.0402 14.6787 40.0402 14.123V1.00605C40.0402 0.450391 39.5898 0 39.0342 0V0Z" fill="#9EC0DA"/>
<path d="M24.5473 46.9819H7.54532V26.913C7.54532 26.3573 7.99571 25.9069 8.55137 25.9069H23.5413C24.097 25.9069 24.5474 26.3573 24.5474 26.913V46.9819H24.5473Z" fill="#9EC0DA"/>
<path d="M7.54532 45.4729H24.5474V46.9819H7.54532V45.4729Z" fill="#9EC0DA"/>
<path d="M19.0017 30.7705L16.7179 26.3105C16.477 25.7941 15.6187 25.741 15.3605 26.3399L13.2852 30.8671C13.1115 31.2458 13.2779 31.6938 13.6567 31.8673C13.7585 31.9141 13.8654 31.9361 13.9705 31.9361C14.2565 31.9361 14.53 31.7728 14.6569 31.4958L16.0838 28.3829L17.6585 31.4582C17.7921 31.719 18.0565 31.869 18.3307 31.869C18.4464 31.869 18.5639 31.8423 18.674 31.7859C19.045 31.5961 19.1916 31.1414 19.0017 30.7705V30.7705Z" fill="#FFF9E2"/>
<path d="M19.5034 34.3851H12.5892C12.3164 34.3851 12.0953 34.164 12.0953 33.8912V30.9279C12.0953 30.6552 12.3164 30.4341 12.5892 30.4341H19.5034C19.7762 30.4341 19.9973 30.6552 19.9973 30.9279V33.8912C19.9973 34.164 19.7762 34.3851 19.5034 34.3851V34.3851Z" fill="#FEE97D"/>
<path d="M41.6499 35.651H29.8793C29.4348 35.651 29.0744 35.2907 29.0744 34.8462V26.7127C29.0744 26.2682 29.4348 25.9079 29.8793 25.9079H41.6499C42.0944 25.9079 42.4547 26.2683 42.4547 26.7127V34.8462C42.4547 35.2907 42.0944 35.651 41.6499 35.651Z" fill="#B3DAFE"/>
<path d="M36.5191 30.024V25.9074V25.9069H35.0101V25.9074V30.024H29.0744V31.533H35.0101V35.6499V35.6501H36.5191V35.6499V31.533H42.4547V30.024H36.5191Z" fill="#EAF6FF"/>
<path d="M32.5881 10.6006L25.7545 7.43789V6.74482C26.7634 6.39512 27.4075 5.37627 27.2895 4.3083C27.1726 3.24883 26.3186 2.39492 25.2592 2.27793C24.6049 2.20517 23.9506 2.41445 23.4632 2.85098C22.9756 3.28769 22.696 3.91338 22.696 4.56758C22.696 4.98428 23.0338 5.32207 23.4505 5.32207C23.8673 5.32207 24.205 4.98428 24.205 4.56758C24.205 4.33848 24.2991 4.12812 24.4699 3.9751C24.6405 3.82236 24.8618 3.75234 25.0934 3.77783C25.4508 3.81728 25.75 4.1165 25.7894 4.47392C25.8316 4.85508 25.6093 5.2042 25.2489 5.32285C24.6486 5.52041 24.2453 6.08681 24.2453 6.73213V7.43789L17.4117 10.6006C16.9017 10.8365 16.6301 11.3847 16.7508 11.9334C16.8717 12.4822 17.3485 12.8655 17.9104 12.8655H32.089C32.651 12.8655 33.1279 12.4822 33.2487 11.9334C33.3697 11.3847 33.0979 10.8365 32.5881 10.6006V10.6006ZM19.3716 11.3564L25 8.75156L30.6284 11.3564H19.3716Z" fill="white"/>
</g>
<defs>
<clipPath id="clip0">
<rect width="50" height="50" fill="white"/>
</clipPath>
</defs>
</svg>
