<svg width="50" height="50" viewBox="0 0 50 50" fill="none" xmlns="http://www.w3.org/2000/svg">
<path d="M48.5351 10.8391H1.46486C0.655767 10.8391 0 11.4949 0 12.3039V43.5551C0 44.3641 0.655767 45.02 1.46486 45.02H48.5351C49.3441 45.02 50 44.3641 50 43.5551V12.3039C50 11.4949 49.3441 10.8391 48.5351 10.8391V10.8391Z" fill="#F2F7FF"/>
<path d="M48.5351 10.8391H25V45.0201H48.5351C49.3441 45.0201 50 44.3642 50 43.5552V12.304C50 11.495 49.3441 10.8391 48.5351 10.8391V10.8391Z" fill="#D9E6FC"/>
<path d="M43.4077 29.6387H31.5925C30.7836 29.6387 30.1277 28.9828 30.1277 28.1738C30.1277 27.3649 30.7836 26.709 31.5925 26.709H43.4077C44.2167 26.709 44.8725 27.3649 44.8725 28.1738C44.8725 28.9828 44.2167 29.6387 43.4077 29.6387Z" fill="#48568C"/>
<path d="M43.4077 35.4984H31.5925C30.7836 35.4984 30.1277 34.8426 30.1277 34.0336C30.1277 33.2246 30.7836 32.5687 31.5925 32.5687H43.4077C44.2167 32.5687 44.8725 33.2246 44.8725 34.0336C44.8725 34.8426 44.2167 35.4984 43.4077 35.4984Z" fill="#48568C"/>
<path d="M40.4775 23.779H34.5225C33.7135 23.779 33.0576 23.1231 33.0576 22.3141C33.0576 21.5051 33.7135 20.8493 34.5225 20.8493H40.4775C41.2865 20.8493 41.9424 21.5051 41.9424 22.3141C41.9424 23.1231 41.2865 23.779 40.4775 23.779Z" fill="#48568C"/>
<path d="M12.4999 27.4414C8.46133 27.4414 5.17566 30.7271 5.17566 34.7657C5.17566 35.5747 5.83152 36.2306 6.64051 36.2306H18.3594C19.1683 36.2306 19.8242 35.5747 19.8242 34.7657C19.8242 30.7271 16.5386 27.4414 12.4999 27.4414V27.4414Z" fill="#A7CAFC"/>
<path d="M12.4999 30.371C15.3314 30.371 17.6268 28.0756 17.6268 25.2441C17.6268 22.4126 15.3314 20.1171 12.4999 20.1171C9.66834 20.1171 7.37292 22.4126 7.37292 25.2441C7.37292 28.0756 9.66834 30.371 12.4999 30.371Z" fill="#FFD9C0"/>
<path d="M35.7431 7.90963H29.1436C28.5391 6.20444 26.9099 4.97992 25 4.97992C23.0901 4.97992 21.461 6.20444 20.8564 7.90963H14.257C13.448 7.90963 12.7921 8.56549 12.7921 9.37449V15.2339C12.7921 16.0429 13.448 16.6988 14.257 16.6988H35.7431C36.5521 16.6988 37.2079 16.0429 37.2079 15.2339V9.37449C37.2079 8.56549 36.5521 7.90963 35.7431 7.90963Z" fill="#BFE85F"/>
<path d="M35.743 7.90961H29.1436C28.5391 6.20443 26.9099 4.97992 25 4.97992V16.6987H35.743C36.552 16.6987 37.2078 16.0428 37.2078 15.2338V9.37445C37.2078 8.56547 36.552 7.90961 35.743 7.90961Z" fill="#00CB76"/>
</svg>
