<svg width="50" height="50" viewBox="0 0 50 50" fill="none" xmlns="http://www.w3.org/2000/svg">
<g clip-path="url(#clip0)">
<path d="M40.3437 47.334H9.65635C7.59805 47.334 5.87158 45.7809 5.65459 43.7341L3.01807 18.8632L3.12822 18.6705L46.6836 18.536L46.9818 18.8632L44.3453 43.7341C44.1284 45.7809 42.402 47.334 40.3437 47.334Z" fill="#FEE97D"/>
<path d="M46.6841 18.5362L3.05237 18.671L3.01819 18.8632L3.24456 20.996L17.1533 20.9531C32.0846 20.9071 34.1427 42.5132 19.4731 45.2965C17.6432 45.6437 15.7574 45.825 13.8328 45.825H6.63821C6.59641 45.825 6.555 45.8233 6.5135 45.8221C7.25452 46.748 8.3925 47.3341 9.65627 47.3341H40.3437C42.402 47.3341 44.1284 45.781 44.3454 43.7342L46.982 18.8633L46.6841 18.5362Z" fill="#FEDF30"/>
<path d="M47.9376 18.8632H2.0624C0.92334 18.8632 0 17.9398 0 16.8008C0 15.6617 0.92334 14.7384 2.0624 14.7384H47.9377C49.0768 14.7384 50.0001 15.6617 50.0001 16.8008C50 17.9398 49.0767 18.8632 47.9376 18.8632Z" fill="#F3EAE6"/>
<path d="M47.9376 14.7384H44.9196C46.0586 14.7384 46.982 15.6617 46.982 16.8008C46.982 17.9397 46.0586 18.8632 44.9196 18.8632H47.9376C49.0767 18.8632 50 17.9398 50 16.8008C50 15.6618 49.0767 14.7384 47.9376 14.7384Z" fill="#E1D3CE"/>
<path d="M5.48673 11.7212H21.0491C21.8825 11.7212 22.5582 12.3968 22.5582 13.2303C22.5582 14.0637 21.8826 14.7394 21.0491 14.7394H4.6507C2.9839 14.7394 1.63263 13.3881 1.63263 11.7213C1.63263 10.0544 2.9839 8.70323 4.6507 8.70323H20.8479C21.7924 8.70323 22.5581 9.46895 22.5581 10.4135V13.2304" fill="#7ACAA6"/>
<path d="M20.8479 8.70223H17.8297C18.7742 8.70223 19.54 9.46795 19.54 10.4125V13.2294C19.54 14.0628 18.8644 14.7385 18.0309 14.7385H21.049C21.8824 14.7385 22.558 14.0629 22.558 13.2294V10.4125C22.5581 9.46795 21.7925 8.70223 20.8479 8.70223V8.70223Z" fill="#57BE92"/>
<path d="M5.48673 5.68407H21.0491C21.8825 5.68407 22.5582 6.35966 22.5582 7.19315C22.5582 8.02655 21.8826 8.70224 21.0491 8.70224H4.6507C2.9839 8.70224 1.63263 7.35097 1.63263 5.68407C1.63263 4.01718 2.9839 2.66601 4.6507 2.66601H20.8479C21.7924 2.66601 22.5581 3.43173 22.5581 4.37626V7.19315" fill="#F58A97"/>
<path d="M20.8479 2.66601H17.8297C18.7742 2.66601 19.54 3.43173 19.54 4.37626V7.19315C19.54 8.02655 18.8644 8.70224 18.0309 8.70224H21.049C21.8824 8.70224 22.558 8.02655 22.558 7.19315V4.37626C22.5581 3.43173 21.7925 2.66601 20.8479 2.66601Z" fill="#F07281"/>
<path d="M31.0948 11.7212H46.6572C47.4906 11.7212 48.1662 12.3968 48.1662 13.2303C48.1662 14.0637 47.4907 14.7394 46.6572 14.7394H30.2587C28.5918 14.7394 27.2407 13.3881 27.2407 11.7213C27.2407 10.0544 28.5919 8.70323 30.2587 8.70323H46.4559C47.4004 8.70323 48.1662 9.46895 48.1662 10.4135V13.2304" fill="#B3DAFE"/>
<path d="M46.456 8.70223H43.4379C44.3825 8.70223 45.1482 9.46795 45.1482 10.4125V13.2294C45.1482 14.0628 44.4725 14.7385 43.6391 14.7385H46.6572C47.4906 14.7385 48.1662 14.0629 48.1662 13.2294V10.4125C48.1662 9.46795 47.4005 8.70223 46.456 8.70223V8.70223Z" fill="#8AC9FE"/>
<path d="M31.0948 5.68407H46.6572C47.4906 5.68407 48.1662 6.35966 48.1662 7.19315C48.1662 8.02655 47.4907 8.70224 46.6572 8.70224H30.2587C28.5918 8.70224 27.2407 7.35097 27.2407 5.68407C27.2407 4.01718 28.5919 2.66601 30.2587 2.66601H46.4559C47.4004 2.66601 48.1662 3.43173 48.1662 4.37626V7.19315" fill="#ACA6D6"/>
<path d="M46.456 2.66601H43.4379C44.3825 2.66601 45.1482 3.43173 45.1482 4.37626V7.19315C45.1482 8.02655 44.4725 8.70224 43.6391 8.70224H46.6572C47.4906 8.70224 48.1662 8.02655 48.1662 7.19315V4.37626C48.1662 3.43173 47.4005 2.66601 46.456 2.66601Z" fill="#978ECB"/>
<path d="M24.4979 30.7344H23.1389V25.5523C23.1389 24.3583 24.1068 23.3903 25.3009 23.3903H26.66V28.5724C26.66 29.7664 25.692 30.7344 24.4979 30.7344V30.7344Z" fill="white"/>
<path d="M24.8517 23.4377C25.5269 23.9656 26.1298 24.5627 26.66 25.2127V23.3903H25.3009C25.1468 23.3903 24.9967 23.407 24.8517 23.4377V23.4377Z" fill="#FAF7F7"/>
<path d="M24.4979 42.6057H23.1389V37.4236C23.1389 36.2296 24.1068 35.2616 25.3009 35.2616H26.66V40.4437C26.66 41.6377 25.692 42.6057 24.4979 42.6057V42.6057Z" fill="white"/>
<path d="M9.60622 35.3512L8.25232 35.4696L8.70398 40.6319C8.80808 41.8215 9.85671 42.7014 11.0462 42.5973L12.4001 42.4788L11.9484 37.3165C11.8443 36.1269 10.7957 35.2471 9.60622 35.3512Z" fill="white"/>
<path d="M8.57156 23.5251L7.21765 23.6435L7.66931 28.8058C7.77341 29.9954 8.82205 30.8753 10.0115 30.7712L11.3654 30.6527L10.9137 25.4904C10.8096 24.301 9.76101 23.421 8.57156 23.5251V23.5251Z" fill="white"/>
<path d="M17.1515 35.3512L15.7975 35.4696L16.2492 40.6319C16.3533 41.8215 17.4019 42.7014 18.5914 42.5973L19.9453 42.4788L19.4936 37.3165C19.3896 36.1269 18.341 35.2471 17.1515 35.3512Z" fill="white"/>
<path d="M16.1168 23.5251L14.7629 23.6435L15.2145 28.8058C15.3186 29.9954 16.3673 30.8753 17.5567 30.7712L18.9106 30.6527L18.459 25.4904C18.355 24.301 17.3063 23.421 16.1168 23.5251V23.5251Z" fill="white"/>
<path d="M40.1926 35.3512L41.5465 35.4696L41.0948 40.6319C40.9907 41.8215 39.9421 42.7014 38.7525 42.5973L37.3986 42.4788L37.8503 37.3165C37.9544 36.1269 39.0031 35.2471 40.1926 35.3512Z" fill="#FAF7F7"/>
<path d="M41.2272 23.5251L42.5811 23.6435L42.1294 28.8058C42.0253 29.9954 40.9767 30.8753 39.7873 30.7712L38.4333 30.6527L38.885 25.4904C38.989 24.301 40.0376 23.421 41.2272 23.5251V23.5251Z" fill="#FAF7F7"/>
<path d="M32.6474 35.3512L34.0013 35.4696L33.5496 40.6319C33.4455 41.8215 32.3969 42.7014 31.2074 42.5973L29.8535 42.4788L30.3052 37.3165C30.4092 36.1269 31.4578 35.2471 32.6474 35.3512Z" fill="#FAF7F7"/>
<path d="M33.6819 23.5251L35.0358 23.6435L34.5842 28.8058C34.4801 29.9954 33.4314 30.8753 32.242 30.7712L30.8881 30.6527L31.3397 25.4904C31.4437 24.301 32.4925 23.421 33.6819 23.5251V23.5251Z" fill="#FAF7F7"/>
<path d="M21.7431 12.2006H5.54198C5.27675 12.2006 5.06171 11.9855 5.06171 11.7203C5.06171 11.4551 5.27675 11.24 5.54198 11.24H21.7431V12.2006Z" fill="#57BE92"/>
<path d="M21.7431 6.16434H5.54198C5.27675 6.16434 5.06171 5.94931 5.06171 5.68407C5.06171 5.41884 5.27675 5.2039 5.54198 5.2039H21.7431V6.16434Z" fill="#F07281"/>
<path d="M46.982 12.2006H30.7809C30.5157 12.2006 30.3007 11.9855 30.3007 11.7203C30.3007 11.4551 30.5158 11.24 30.7809 11.24H46.982V12.2006Z" fill="#8AC9FE"/>
<path d="M46.982 6.16434H30.7809C30.5157 6.16434 30.3007 5.94931 30.3007 5.68407C30.3007 5.41884 30.5158 5.2039 30.7809 5.2039H46.982V6.16434Z" fill="#978ECB"/>
</g>
<defs>
<clipPath id="clip0">
<rect width="50" height="50" fill="white"/>
</clipPath>
</defs>
</svg>
