<svg width="44" height="44" viewBox="0 0 44 44" fill="none" xmlns="http://www.w3.org/2000/svg">
<g clip-path="url(#clip0)">
<path d="M35.5024 41.6539H8.4976C6.6863 41.6539 5.16701 40.2872 4.97605 38.486L2.65591 16.5996L2.75285 16.43L41.0816 16.3117L41.344 16.5996L39.0239 38.486C38.833 40.2872 37.3137 41.6539 35.5024 41.6539Z" fill="#FEE97D"/>
<path d="M41.082 16.3119L2.68605 16.4305L2.65598 16.5996L2.85518 18.4765L15.0949 18.4388C28.2344 18.3983 30.0455 37.4116 17.1363 39.8609C15.526 40.1664 13.8665 40.326 12.1729 40.326H5.84159C5.80481 40.326 5.76837 40.3245 5.73185 40.3234C6.38394 41.1382 7.38537 41.654 8.49749 41.654H35.5024C37.3137 41.654 38.833 40.2872 39.024 38.4861L41.3441 16.5997L41.082 16.3119Z" fill="#FEDF30"/>
<path d="M42.1851 16.5996H1.81491C0.812539 16.5996 0 15.787 0 14.7847C0 13.7823 0.812539 12.9698 1.81491 12.9698H42.1852C43.1875 12.9698 44.0001 13.7823 44.0001 14.7847C44 15.787 43.1875 16.5996 42.1851 16.5996Z" fill="#F3EAE6"/>
<path d="M42.1851 12.9698H39.5292C40.5316 12.9698 41.3441 13.7823 41.3441 14.7847C41.3441 15.787 40.5316 16.5996 39.5292 16.5996H42.1851C43.1875 16.5996 44 15.7871 44 14.7847C44 13.7824 43.1875 12.9698 42.1851 12.9698Z" fill="#E1D3CE"/>
<path d="M4.82832 10.3148H18.5232C19.2566 10.3148 19.8512 10.9093 19.8512 11.6428C19.8512 12.3762 19.2567 12.9708 18.5232 12.9708H4.0926C2.62582 12.9708 1.43671 11.7817 1.43671 10.3149C1.43671 8.84803 2.62582 7.659 4.0926 7.659H18.3461C19.1773 7.659 19.8511 8.33283 19.8511 9.16402V11.6429" fill="#7ACAA6"/>
<path d="M18.3461 7.65799H15.6901C16.5213 7.65799 17.1951 8.33183 17.1951 9.16301V11.6419C17.1951 12.3753 16.6006 12.9699 15.8672 12.9699H18.5231C19.2565 12.9699 19.851 12.3754 19.851 11.6419V9.16301C19.8511 8.33183 19.1774 7.65799 18.3461 7.65799V7.65799Z" fill="#57BE92"/>
<path d="M4.82832 5.002H18.5232C19.2566 5.002 19.8512 5.59651 19.8512 6.32999C19.8512 7.06338 19.2567 7.65798 18.5232 7.65798H4.0926C2.62582 7.65798 1.43671 6.46886 1.43671 5.002C1.43671 3.53513 2.62582 2.3461 4.0926 2.3461H18.3461C19.1773 2.3461 19.8511 3.01994 19.8511 3.85112V6.32999" fill="#F58A97"/>
<path d="M18.3461 2.3461H15.6901C16.5213 2.3461 17.1951 3.01994 17.1951 3.85112V6.32999C17.1951 7.06338 16.6006 7.65798 15.8672 7.65798H18.5231C19.2565 7.65798 19.851 7.06338 19.851 6.32999V3.85112C19.8511 3.01994 19.1774 2.3461 18.3461 2.3461Z" fill="#F07281"/>
<path d="M27.3634 10.3148H41.0583C41.7917 10.3148 42.3863 10.9093 42.3863 11.6428C42.3863 12.3762 41.7918 12.9708 41.0583 12.9708H26.6277C25.1608 12.9708 23.9718 11.7817 23.9718 10.3149C23.9718 8.84803 25.1609 7.659 26.6277 7.659H40.8812C41.7124 7.659 42.3862 8.33283 42.3862 9.16402V11.6429" fill="#B3DAFE"/>
<path d="M40.8812 7.65799H38.2253C39.0565 7.65799 39.7304 8.33183 39.7304 9.16301V11.6419C39.7304 12.3753 39.1358 12.9699 38.4024 12.9699H41.0583C41.7917 12.9699 42.3863 12.3754 42.3863 11.6419V9.16301C42.3863 8.33183 41.7124 7.65799 40.8812 7.65799V7.65799Z" fill="#8AC9FE"/>
<path d="M27.3634 5.002H41.0583C41.7917 5.002 42.3863 5.59651 42.3863 6.32999C42.3863 7.06338 41.7918 7.65798 41.0583 7.65798H26.6277C25.1608 7.65798 23.9718 6.46886 23.9718 5.002C23.9718 3.53513 25.1609 2.3461 26.6277 2.3461H40.8812C41.7124 2.3461 42.3862 3.01994 42.3862 3.85112V6.32999" fill="#ACA6D6"/>
<path d="M40.8812 2.3461H38.2253C39.0565 2.3461 39.7304 3.01994 39.7304 3.85112V6.32999C39.7304 7.06338 39.1358 7.65798 38.4024 7.65798H41.0583C41.7917 7.65798 42.3863 7.06338 42.3863 6.32999V3.85112C42.3863 3.01994 41.7124 2.3461 40.8812 2.3461Z" fill="#978ECB"/>
<path d="M21.5582 27.0463H20.3622V22.4861C20.3622 21.4353 21.214 20.5835 22.2648 20.5835H23.4608V25.1437C23.4608 26.1944 22.609 27.0463 21.5582 27.0463V27.0463Z" fill="white"/>
<path d="M21.8695 20.6252C22.4636 21.0898 22.9942 21.6152 23.4608 22.1872V20.5835H22.2648C22.1292 20.5835 21.9971 20.5982 21.8695 20.6252V20.6252Z" fill="#FAF7F7"/>
<path d="M21.5582 37.493H20.3622V32.9328C20.3622 31.8821 21.214 31.0302 22.2648 31.0302H23.4608V35.5904C23.4608 36.6412 22.609 37.493 21.5582 37.493V37.493Z" fill="white"/>
<path d="M8.45346 31.109L7.26202 31.2133L7.65948 35.7561C7.75109 36.8029 8.67389 37.5772 9.72061 37.4856L10.912 37.3814L10.5146 32.8385C10.423 31.7917 9.50018 31.0174 8.45346 31.109Z" fill="white"/>
<path d="M7.54297 20.7021L6.35153 20.8063L6.74899 25.3492C6.8406 26.396 7.7634 27.1703 8.81012 27.0787L10.0016 26.9744L9.60409 22.4316C9.51249 21.3849 8.58969 20.6105 7.54297 20.7021V20.7021Z" fill="white"/>
<path d="M15.0933 31.109L13.9018 31.2133L14.2993 35.7561C14.3909 36.8029 15.3137 37.5772 16.3604 37.4856L17.5518 37.3814L17.1544 32.8385C17.0629 31.7917 16.1401 31.0174 15.0933 31.109Z" fill="white"/>
<path d="M14.1828 20.7021L12.9913 20.8063L13.3888 25.3492C13.4804 26.396 14.4032 27.1703 15.4499 27.0787L16.6414 26.9744L16.2439 22.4316C16.1524 21.3849 15.2296 20.6105 14.1828 20.7021V20.7021Z" fill="white"/>
<path d="M35.3695 31.109L36.5609 31.2133L36.1634 35.7561C36.0718 36.8029 35.149 37.5772 34.1022 37.4856L32.9108 37.3814L33.3083 32.8385C33.3999 31.7917 34.3227 31.0174 35.3695 31.109Z" fill="#FAF7F7"/>
<path d="M36.28 20.7021L37.4714 20.8063L37.0739 25.3492C36.9823 26.396 36.0595 27.1703 35.0128 27.0787L33.8214 26.9744L34.2188 22.4316C34.3104 21.3849 35.2332 20.6105 36.28 20.7021V20.7021Z" fill="#FAF7F7"/>
<path d="M28.7297 31.109L29.9211 31.2133L29.5236 35.7561C29.432 36.8029 28.5092 37.5772 27.4625 37.4856L26.2711 37.3814L26.6685 32.8385C26.7601 31.7917 27.6829 31.0174 28.7297 31.109Z" fill="#FAF7F7"/>
<path d="M29.6401 20.7021L30.8315 20.8063L30.4341 25.3492C30.3425 26.396 29.4197 27.1703 28.373 27.0787L27.1815 26.9744L27.579 22.4316C27.6705 21.3849 28.5934 20.6105 29.6401 20.7021V20.7021Z" fill="#FAF7F7"/>
<path d="M19.1339 10.7365H4.87696C4.64355 10.7365 4.45432 10.5473 4.45432 10.3139C4.45432 10.0805 4.64355 9.89124 4.87696 9.89124H19.1339V10.7365Z" fill="#57BE92"/>
<path d="M19.1339 5.42463H4.87696C4.64355 5.42463 4.45432 5.2354 4.45432 5.00199C4.45432 4.76859 4.64355 4.57944 4.87696 4.57944H19.1339V5.42463Z" fill="#F07281"/>
<path d="M41.3441 10.7365H27.0872C26.8538 10.7365 26.6646 10.5473 26.6646 10.3139C26.6646 10.0805 26.8538 9.89124 27.0872 9.89124H41.3441V10.7365Z" fill="#8AC9FE"/>
<path d="M41.3441 5.42463H27.0872C26.8538 5.42463 26.6646 5.2354 26.6646 5.00199C26.6646 4.76859 26.8538 4.57944 27.0872 4.57944H41.3441V5.42463Z" fill="#978ECB"/>
</g>
<defs>
<clipPath id="clip0">
<rect width="44" height="44" fill="white"/>
</clipPath>
</defs>
</svg>
