<svg width="44" height="44" viewBox="0 0 44 44" fill="none" xmlns="http://www.w3.org/2000/svg">
<path d="M22.0007 5.9952C21.9667 5.9952 21.9334 5.9952 21.8992 5.99513C12.3538 5.97615 4.89795 3.28713 0.32421 1.03469C0.015352 0.882616 -0.0915538 0.544116 0.0853907 0.278663C0.262421 0.0132844 0.656271 -0.0786713 0.965043 0.0734063C5.40361 2.25929 12.6391 4.86884 21.9022 4.88723C21.9347 4.8873 21.9682 4.8873 22.0006 4.8873C31.3035 4.8873 38.5704 2.272 43.035 0.0734063C43.3437 -0.0786713 43.7377 0.0131367 43.9146 0.278663C44.0916 0.544116 43.9846 0.882616 43.6758 1.03469C39.0756 3.30005 31.5862 5.9952 22.0007 5.9952Z" fill="#CBC4CC"/>
<path d="M26.1136 22.5781V9.83641C26.1136 9.42848 26.4983 9.09781 26.9729 9.09781H33.4726C33.9473 9.09781 34.332 9.42848 34.332 9.83641L35.621 13.4134V22.9361L34.332 25.3545C34.332 26.2504 33.9179 27.1097 33.1807 27.7433L32.2241 29.6733L26.8437 34.2976C26.2944 34.7697 25.6453 35.104 24.9548 35.3002C24.2782 35.4925 23.5618 34.4444 22.8605 34.3718C21.8279 34.2649 20.8278 34.9788 20.0353 34.2976C18.1787 32.702 18.1522 30.122 19.9756 28.4983L25.7459 23.3602C25.9818 23.1503 26.1136 22.8699 26.1136 22.5781Z" fill="#F3EAE6"/>
<path d="M33.4726 9.09781H33.0429V24.2466C33.0429 25.1425 32.6288 26.0018 31.8916 26.6354L24.2655 33.1897C23.1306 34.1652 21.57 34.5508 20.0975 34.3485C20.7103 34.8569 21.4412 34.0905 22.2127 34.2648C23.1127 34.4681 24.0679 35.5519 24.9547 35.3C25.6452 35.1039 26.2943 34.7698 26.8437 34.2976L32.2241 29.6733L33.1807 27.7433C33.9178 27.1097 34.332 26.2504 34.332 25.3545L35.621 22.9361V13.4134L34.332 9.83641C34.332 9.42848 33.9472 9.09781 33.4726 9.09781V9.09781Z" fill="#E1D3CE"/>
<path d="M34.7616 9.09778H26.9729C26.4982 9.09778 26.1135 9.42845 26.1135 9.83638V13.4134H35.621V9.83638C35.621 9.42845 35.2363 9.09778 34.7616 9.09778Z" fill="#ACA6D6"/>
<path d="M34.7616 9.09778H33.0429V13.4134H35.621V9.83638C35.621 9.42845 35.2363 9.09778 34.7616 9.09778Z" fill="#978ECB"/>
<path d="M35.621 22.936C35.404 22.9078 35.1819 22.893 34.9557 22.893C32.5157 22.893 30.5377 24.5931 30.5377 26.6901C30.5377 27.9007 31.1975 28.9779 32.2242 29.6733L34.4698 27.7433C35.207 27.1097 35.6211 26.2504 35.6211 25.3544V22.936H35.621Z" fill="#ACA6D6"/>
<path d="M35.621 22.936C35.404 22.9078 35.1818 22.893 34.9557 22.893C34.2704 22.893 33.6216 23.0272 33.0429 23.2665V24.2465C33.0429 25.1425 32.6287 26.0018 31.8916 26.6354L30.6882 27.6696C30.9377 28.4734 31.485 29.1727 32.224 29.6733L33.7212 28.3866L34.4697 27.7433C35.2068 27.1097 35.621 26.2504 35.621 25.3544V22.936Z" fill="#978ECB"/>
<path d="M25.2089 33.8388C25.2089 34.347 25.1195 34.8374 24.9545 35.299C24.4629 35.4386 23.9499 35.5088 23.4368 35.5088C22.2672 35.5088 21.0985 35.1447 20.179 34.4157C20.1515 34.3935 20.1248 34.3713 20.0982 34.3492L20.0973 34.3484C20.0768 34.3315 20.0558 34.315 20.0354 34.2975C18.3184 32.8225 18.168 30.5062 19.5954 28.882C22.1942 28.9419 24.365 30.4774 25.0112 32.5499C25.1401 32.9606 25.2089 33.3927 25.2089 33.8388V33.8388Z" fill="#ACA6D6"/>
<path d="M25.2089 33.8388C25.2089 34.347 25.1195 34.8374 24.9545 35.299C24.4629 35.4386 23.9499 35.5088 23.4368 35.5088C22.2672 35.5088 21.0985 35.1446 20.1789 34.4156C20.1514 34.3935 20.1248 34.3713 20.0982 34.3492L20.0973 34.3484C20.3542 34.3854 20.6103 34.4038 20.863 34.4038C22.3927 34.4038 23.8304 33.7361 25.0103 32.5492C25.0103 32.5499 25.0112 32.5499 25.0112 32.5499C25.1401 32.9606 25.2089 33.3927 25.2089 33.8388V33.8388Z" fill="#978ECB"/>
<path d="M30.8672 9.61266C30.3433 9.61266 29.8984 9.2825 29.8222 8.83691L29.0802 4.50057C28.9865 3.95253 29.4807 3.46069 30.1252 3.46069H31.6092C32.2537 3.46069 32.748 3.95253 32.6542 4.50057L31.9122 8.83691C31.836 9.2825 31.3913 9.61266 30.8672 9.61266V9.61266Z" fill="#A79BA7"/>
<path d="M8.13281 22.5781V9.83641C8.13281 9.42848 8.51755 9.09781 8.99218 9.09781H15.4919C15.9665 9.09781 16.3512 9.42848 16.3512 9.83641L17.6403 13.4134V22.9361L16.3512 25.3545C16.3512 26.2504 15.9371 27.1097 15.1999 27.7433L14.2434 29.6733L8.86293 34.2976C8.31362 34.7697 7.66453 35.104 6.97403 35.3002C6.29745 35.4925 5.58107 34.4444 4.87974 34.3718C3.84712 34.2649 2.84707 34.9788 2.05464 34.2976C0.198059 32.702 0.171505 30.122 1.99492 28.4983L7.76525 23.3602C8.00106 23.1503 8.13281 22.8699 8.13281 22.5781V22.5781Z" fill="#F3EAE6"/>
<path d="M15.492 9.09781H15.0623V24.2466C15.0623 25.1425 14.6481 26.0018 13.911 26.6354L6.28492 33.1897C5.14995 34.1652 3.58933 34.5508 2.11688 34.3485C2.7297 34.8569 3.4606 34.0905 4.23197 34.2648C5.13207 34.4681 6.08718 35.5519 6.97396 35.3C7.66447 35.1039 8.31355 34.7698 8.86295 34.2976L14.2434 29.6733L15.1999 27.7433C15.9371 27.1097 16.3512 26.2504 16.3512 25.3545L17.6403 22.9361V13.4134L16.3512 9.83641C16.3513 9.42848 15.9666 9.09781 15.492 9.09781V9.09781Z" fill="#E1D3CE"/>
<path d="M16.7811 9.09781H8.99231C8.51768 9.09781 8.13293 9.42848 8.13293 9.83641V13.4135H17.6405V9.83641C17.6405 9.42848 17.2557 9.09781 16.7811 9.09781Z" fill="#ACA6D6"/>
<path d="M16.7811 9.09781H15.0623V13.4135H17.6404V9.83641C17.6404 9.42848 17.2557 9.09781 16.7811 9.09781Z" fill="#978ECB"/>
<path d="M17.6404 22.936C17.4234 22.9078 17.2012 22.893 16.9751 22.893C14.535 22.893 12.5571 24.593 12.5571 26.6901C12.5571 27.9007 13.2169 28.9779 14.2434 29.6733L16.4891 27.7433C17.2263 27.1097 17.6404 26.2504 17.6404 25.3543V22.936Z" fill="#ACA6D6"/>
<path d="M17.6404 22.936C17.4234 22.9078 17.2012 22.893 16.975 22.893C16.2898 22.893 15.641 23.0271 15.0622 23.2664V24.2465C15.0622 25.1425 14.6481 26.0018 13.9109 26.6354L12.7076 27.6696C12.957 28.4734 13.5044 29.1727 14.2434 29.6732L15.7405 28.3866L16.4891 27.7433C17.2262 27.1097 17.6404 26.2504 17.6404 25.3543V22.936Z" fill="#978ECB"/>
<path d="M7.22829 33.8388C7.22829 34.347 7.13891 34.8374 6.97391 35.299C6.48235 35.4386 5.96931 35.5088 5.45626 35.5088C4.26774 35.5088 3.08009 35.1336 2.15454 34.3809C2.1511 34.3773 2.14767 34.3743 2.14337 34.3721C2.11415 34.3477 2.08407 34.3226 2.05485 34.2975C0.337824 32.8225 0.187433 30.5062 1.61485 28.882C4.21446 28.9419 6.38524 30.4782 7.03149 32.5514C7.1604 32.9621 7.22829 33.3934 7.22829 33.8388V33.8388Z" fill="#ACA6D6"/>
<path d="M7.22826 33.8388C7.22826 34.3469 7.13888 34.8374 6.97388 35.299C6.48232 35.4386 5.96928 35.5088 5.45623 35.5088C4.26771 35.5088 3.08006 35.1336 2.15451 34.3809C2.15107 34.3772 2.14764 34.3743 2.14334 34.3721C2.13475 34.3639 2.12615 34.3566 2.11756 34.3492C2.1167 34.3492 2.1167 34.3484 2.1167 34.3484C2.37365 34.3854 2.62975 34.4038 2.8824 34.4038C4.41209 34.4038 5.84982 33.7361 7.02974 32.5492C7.02974 32.5499 7.0306 32.5507 7.03146 32.5514C7.16037 32.9621 7.22826 33.3934 7.22826 33.8388V33.8388Z" fill="#978ECB"/>
<path d="M12.8867 9.61266C12.3627 9.61266 11.9179 9.2825 11.8417 8.83691L11.0997 4.50057C11.0059 3.95253 11.5001 3.46069 12.1447 3.46069H13.6286C14.2732 3.46069 14.7674 3.95253 14.6736 4.50057L13.9317 8.83691C13.8554 9.2825 13.4106 9.61266 12.8867 9.61266V9.61266Z" fill="#A79BA7"/>
</svg>
