<svg width="18" height="23" viewBox="0 0 18 23" fill="none" xmlns="http://www.w3.org/2000/svg">
<g clip-path="url(#clip0)">
<path d="M15.8648 15.9272C18.7125 12.2884 18.7125 6.36764 15.8648 2.72885C13.0171 -0.909941 8.38349 -0.909941 5.5358 2.72885C3.11987 5.81587 2.75398 10.407 4.43714 13.9923C4.43714 13.9923 4.55804 14.2514 4.39475 14.4599C3.4632 15.6502 0.668398 19.2214 0.668398 19.2214C-0.0733004 20.169 -0.249868 21.4942 0.407867 22.3348L0.521114 22.4793C1.17885 23.3199 2.21598 23.0944 2.95763 22.1467C2.95763 22.1467 5.74652 18.583 6.67615 17.3952C6.84727 17.1766 7.05004 17.3311 7.05004 17.3311C9.85581 19.4817 13.4489 19.0142 15.8648 15.9272ZM6.8842 14.2042C4.78001 11.5155 4.78007 7.14072 6.88426 4.45203C8.98845 1.76341 12.4122 1.76334 14.5163 4.45203C16.6205 7.14065 16.6205 11.5155 14.5163 14.2042C12.4121 16.8927 8.98845 16.8927 6.8842 14.2042Z" fill="#9EC0DA"/>
<path d="M7.34974 8.7744C7.2518 8.7744 7.15224 8.7498 7.05627 8.69801C6.67293 8.4907 6.49358 7.92552 6.65582 7.43561C7.67556 4.35637 10.4657 2.91134 12.8755 4.21434C13.2588 4.42165 13.4382 4.98683 13.2759 5.47674C13.1136 5.96664 12.6714 6.19566 12.2879 5.98842C10.6437 5.09945 8.73995 6.08541 8.0443 8.18625C7.92258 8.55368 7.64344 8.7744 7.34974 8.7744Z" fill="#9EC0DA"/>
</g>
<defs>
<clipPath id="clip0">
<rect width="18" height="23" fill="white"/>
</clipPath>
</defs>
</svg>
