<svg width="378" height="35" viewBox="0 0 378 35" fill="none" xmlns="http://www.w3.org/2000/svg">
<path d="M0 17.5C0 7.83502 7.83502 0 17.5 0H360.5C370.165 0 378 7.83502 378 17.5C378 27.165 370.165 35 360.5 35H17.5C7.83502 35 0 27.165 0 17.5Z" fill="#9EC0DA"/>
<path d="M78.8481 13.12H83.1201C84.2507 13.12 85.0987 13.3493 85.6641 13.808C86.2294 14.256 86.5121 14.9867 86.5121 16C86.5121 16.608 86.4214 17.0933 86.2401 17.456C86.0587 17.808 85.7494 18.1227 85.3121 18.4C85.7921 18.6027 86.1441 18.896 86.3681 19.28C86.6027 19.664 86.7201 20.1973 86.7201 20.88C86.7201 21.936 86.4107 22.72 85.7921 23.232C85.1734 23.744 84.3041 24 83.1841 24H78.8481V13.12ZM83.0721 19.456H81.0561V22.112H83.0721C83.5521 22.112 83.9041 22.016 84.1281 21.824C84.3627 21.632 84.4801 21.28 84.4801 20.768C84.4801 19.8933 84.0107 19.456 83.0721 19.456ZM83.0081 15.008H81.0561V17.6H83.0241C83.8561 17.6 84.2721 17.168 84.2721 16.304C84.2721 15.44 83.8507 15.008 83.0081 15.008ZM94.5341 18.496V21.824C94.5554 22.08 94.5981 22.2613 94.6621 22.368C94.7261 22.464 94.8594 22.5333 95.0621 22.576L94.9981 24.192C94.4541 24.192 94.0167 24.1547 93.6861 24.08C93.3661 24.0053 93.0407 23.856 92.7101 23.632C91.9421 24.0053 91.1581 24.192 90.3581 24.192C88.7047 24.192 87.8781 23.3173 87.8781 21.568C87.8781 20.7147 88.1074 20.112 88.5661 19.76C89.0247 19.3973 89.7287 19.184 90.6781 19.12L92.3901 18.992V18.496C92.3901 18.1653 92.3154 17.9413 92.1661 17.824C92.0167 17.696 91.7767 17.632 91.4461 17.632L88.4381 17.76L88.3741 16.272C89.5154 15.9627 90.5981 15.808 91.6221 15.808C92.6567 15.808 93.3981 16.0213 93.8461 16.448C94.3047 16.8747 94.5341 17.5573 94.5341 18.496ZM90.9341 20.608C90.3367 20.6613 90.0381 20.9813 90.0381 21.568C90.0381 22.1547 90.2994 22.448 90.8221 22.448C91.2274 22.448 91.6701 22.384 92.1501 22.256L92.3901 22.192V20.48L90.9341 20.608ZM99.5699 15.808C100.125 15.808 100.834 15.8933 101.698 16.064L102.13 16.16L102.066 17.856C101.223 17.7707 100.599 17.728 100.194 17.728C99.4579 17.728 98.9673 17.888 98.7219 18.208C98.4873 18.5173 98.3699 19.1093 98.3699 19.984C98.3699 20.8587 98.4873 21.4613 98.7219 21.792C98.9673 22.112 99.4633 22.272 100.21 22.272L102.066 22.144L102.13 23.856C100.989 24.08 100.119 24.192 99.5219 24.192C98.3379 24.192 97.4846 23.8613 96.9619 23.2C96.4499 22.528 96.1939 21.456 96.1939 19.984C96.1939 18.512 96.4606 17.4507 96.9939 16.8C97.5273 16.1387 98.3859 15.808 99.5699 15.808ZM109.847 18.496V21.824C109.868 22.08 109.911 22.2613 109.975 22.368C110.039 22.464 110.172 22.5333 110.375 22.576L110.311 24.192C109.767 24.192 109.329 24.1547 108.999 24.08C108.679 24.0053 108.353 23.856 108.023 23.632C107.255 24.0053 106.471 24.192 105.671 24.192C104.017 24.192 103.191 23.3173 103.191 21.568C103.191 20.7147 103.42 20.112 103.879 19.76C104.337 19.3973 105.041 19.184 105.991 19.12L107.703 18.992V18.496C107.703 18.1653 107.628 17.9413 107.479 17.824C107.329 17.696 107.089 17.632 106.759 17.632L103.751 17.76L103.687 16.272C104.828 15.9627 105.911 15.808 106.935 15.808C107.969 15.808 108.711 16.0213 109.159 16.448C109.617 16.8747 109.847 17.5573 109.847 18.496ZM106.247 20.608C105.649 20.6613 105.351 20.9813 105.351 21.568C105.351 22.1547 105.612 22.448 106.135 22.448C106.54 22.448 106.983 22.384 107.463 22.256L107.703 22.192V20.48L106.247 20.608ZM118.942 14.848C117.779 14.848 117.198 15.232 117.198 16C117.198 16.3413 117.342 16.6027 117.63 16.784C117.918 16.9653 118.59 17.2267 119.646 17.568C120.713 17.9093 121.459 18.2987 121.886 18.736C122.313 19.1627 122.526 19.824 122.526 20.72C122.526 21.8613 122.179 22.7253 121.486 23.312C120.793 23.8987 119.886 24.192 118.766 24.192C117.934 24.192 116.915 24.064 115.71 23.808L115.134 23.696L115.358 21.984C116.787 22.176 117.881 22.272 118.638 22.272C119.769 22.272 120.334 21.8027 120.334 20.864C120.334 20.5227 120.201 20.256 119.934 20.064C119.678 19.872 119.161 19.664 118.382 19.44C117.145 19.088 116.27 18.672 115.758 18.192C115.257 17.7013 115.006 17.024 115.006 16.16C115.006 15.072 115.337 14.2613 115.998 13.728C116.659 13.1947 117.566 12.928 118.718 12.928C119.507 12.928 120.51 13.0347 121.726 13.248L122.302 13.36L122.126 15.104C120.622 14.9333 119.561 14.848 118.942 14.848ZM123.264 16H125.376L126.832 22.176H127.2L128.656 16H130.768L127.952 27.36H125.856L126.736 24H125.232L123.264 16ZM138.003 18.496V21.824C138.024 22.08 138.067 22.2613 138.131 22.368C138.195 22.464 138.328 22.5333 138.531 22.576L138.467 24.192C137.923 24.192 137.485 24.1547 137.155 24.08C136.835 24.0053 136.509 23.856 136.179 23.632C135.411 24.0053 134.627 24.192 133.827 24.192C132.173 24.192 131.347 23.3173 131.347 21.568C131.347 20.7147 131.576 20.112 132.035 19.76C132.493 19.3973 133.197 19.184 134.147 19.12L135.859 18.992V18.496C135.859 18.1653 135.784 17.9413 135.635 17.824C135.485 17.696 135.245 17.632 134.915 17.632L131.907 17.76L131.843 16.272C132.984 15.9627 134.067 15.808 135.091 15.808C136.125 15.808 136.867 16.0213 137.315 16.448C137.773 16.8747 138.003 17.5573 138.003 18.496ZM134.403 20.608C133.805 20.6613 133.507 20.9813 133.507 21.568C133.507 22.1547 133.768 22.448 134.291 22.448C134.696 22.448 135.139 22.384 135.619 22.256L135.859 22.192V20.48L134.403 20.608ZM140.047 24V16H142.175V16.848C143.071 16.3147 143.924 15.968 144.735 15.808V17.968C143.871 18.1493 143.129 18.336 142.511 18.528L142.191 18.64V24H140.047ZM152.128 18.496V21.824C152.149 22.08 152.192 22.2613 152.256 22.368C152.32 22.464 152.453 22.5333 152.656 22.576L152.592 24.192C152.048 24.192 151.61 24.1547 151.28 24.08C150.96 24.0053 150.634 23.856 150.304 23.632C149.536 24.0053 148.752 24.192 147.952 24.192C146.298 24.192 145.472 23.3173 145.472 21.568C145.472 20.7147 145.701 20.112 146.16 19.76C146.618 19.3973 147.322 19.184 148.272 19.12L149.984 18.992V18.496C149.984 18.1653 149.909 17.9413 149.76 17.824C149.61 17.696 149.37 17.632 149.04 17.632L146.032 17.76L145.968 16.272C147.109 15.9627 148.192 15.808 149.216 15.808C150.25 15.808 150.992 16.0213 151.44 16.448C151.898 16.8747 152.128 17.5573 152.128 18.496ZM148.528 20.608C147.93 20.6613 147.632 20.9813 147.632 21.568C147.632 22.1547 147.893 22.448 148.416 22.448C148.821 22.448 149.264 22.384 149.744 22.256L149.984 22.192V20.48L148.528 20.608ZM158.604 17.824H156.636V21.104C156.636 21.424 156.641 21.6533 156.652 21.792C156.673 21.92 156.732 22.032 156.828 22.128C156.934 22.224 157.094 22.272 157.308 22.272L158.524 22.24L158.62 23.952C157.905 24.112 157.361 24.192 156.988 24.192C156.028 24.192 155.372 23.9787 155.02 23.552C154.668 23.1147 154.492 22.3147 154.492 21.152V17.824H153.548V16H154.492V13.776H156.636V16H158.604V17.824ZM170.315 12.8V24H168.187V23.664C167.441 24.016 166.795 24.192 166.251 24.192C165.089 24.192 164.278 23.856 163.819 23.184C163.361 22.512 163.131 21.4507 163.131 20C163.131 18.5387 163.403 17.4773 163.947 16.816C164.502 16.144 165.334 15.808 166.443 15.808C166.785 15.808 167.259 15.8613 167.867 15.968L168.171 16.032V12.8H170.315ZM167.947 22.08L168.171 22.032V17.824C167.585 17.7173 167.062 17.664 166.603 17.664C165.739 17.664 165.307 18.432 165.307 19.968C165.307 20.8 165.403 21.392 165.595 21.744C165.787 22.096 166.102 22.272 166.539 22.272C166.987 22.272 167.457 22.208 167.947 22.08ZM178.425 18.496V21.824C178.446 22.08 178.489 22.2613 178.553 22.368C178.617 22.464 178.75 22.5333 178.953 22.576L178.889 24.192C178.345 24.192 177.907 24.1547 177.577 24.08C177.257 24.0053 176.931 23.856 176.601 23.632C175.833 24.0053 175.049 24.192 174.249 24.192C172.595 24.192 171.769 23.3173 171.769 21.568C171.769 20.7147 171.998 20.112 172.457 19.76C172.915 19.3973 173.619 19.184 174.569 19.12L176.281 18.992V18.496C176.281 18.1653 176.206 17.9413 176.057 17.824C175.907 17.696 175.667 17.632 175.337 17.632L172.329 17.76L172.265 16.272C173.406 15.9627 174.489 15.808 175.513 15.808C176.547 15.808 177.289 16.0213 177.737 16.448C178.195 16.8747 178.425 17.5573 178.425 18.496ZM174.825 20.608C174.227 20.6613 173.929 20.9813 173.929 21.568C173.929 22.1547 174.19 22.448 174.713 22.448C175.118 22.448 175.561 22.384 176.041 22.256L176.281 22.192V20.48L174.825 20.608ZM182.613 24H180.469V16H182.597V16.448C183.322 16.0213 183.989 15.808 184.597 15.808C185.663 15.808 186.399 16.1227 186.805 16.752C187.21 17.3813 187.413 18.352 187.413 19.664V24H185.269V19.728C185.269 19.0453 185.189 18.544 185.029 18.224C184.869 17.8933 184.549 17.728 184.069 17.728C183.631 17.728 183.21 17.8027 182.805 17.952L182.613 18.016V24ZM195.228 24H193.02V13.12H195.228V17.904L196.7 17.744L198.492 13.12H201.004L198.636 18.576L201.068 24H198.524L196.7 19.664L195.228 19.824V24ZM203.807 20.912C203.817 21.4027 203.945 21.76 204.191 21.984C204.447 22.1973 204.809 22.304 205.279 22.304C206.271 22.304 207.156 22.272 207.935 22.208L208.383 22.16L208.415 23.744C207.188 24.0427 206.079 24.192 205.087 24.192C203.881 24.192 203.007 23.872 202.463 23.232C201.919 22.592 201.647 21.552 201.647 20.112C201.647 17.2427 202.825 15.808 205.183 15.808C207.508 15.808 208.671 17.0133 208.671 19.424L208.511 20.912H203.807ZM206.559 19.28C206.559 18.64 206.457 18.1973 206.255 17.952C206.052 17.696 205.695 17.568 205.183 17.568C204.681 17.568 204.324 17.7013 204.111 17.968C203.908 18.224 203.801 18.6613 203.791 19.28H206.559ZM214.075 15.808C215.195 15.808 216.011 16.1173 216.523 16.736C217.046 17.344 217.307 18.4373 217.307 20.016C217.307 21.5947 217.008 22.688 216.411 23.296C215.814 23.8933 214.784 24.192 213.323 24.192C212.864 24.192 212.027 24.1387 210.811 24.032L210.203 23.968V12.8H212.347V16.24C213.03 15.952 213.606 15.808 214.075 15.808ZM213.323 22.272C214.038 22.272 214.518 22.1013 214.763 21.76C215.008 21.408 215.131 20.784 215.131 19.888C215.131 18.448 214.683 17.728 213.787 17.728C213.36 17.728 212.955 17.7813 212.571 17.888L212.347 17.936V22.208C212.838 22.2507 213.163 22.272 213.323 22.272ZM218.906 24V16H221.05V24H218.906ZM218.906 14.976V12.8H221.05V14.976H218.906ZM223.047 23.616V16H225.191V23.632C225.191 24.72 224.999 25.52 224.615 26.032C224.242 26.5547 223.484 27.104 222.343 27.68L221.495 26.096C221.975 25.776 222.311 25.5253 222.503 25.344C222.695 25.1627 222.834 24.944 222.919 24.688C223.004 24.4427 223.047 24.0853 223.047 23.616ZM223.047 14.976V12.8H225.191V14.976H223.047ZM233.3 18.496V21.824C233.321 22.08 233.364 22.2613 233.428 22.368C233.492 22.464 233.625 22.5333 233.828 22.576L233.764 24.192C233.22 24.192 232.782 24.1547 232.452 24.08C232.132 24.0053 231.806 23.856 231.476 23.632C230.708 24.0053 229.924 24.192 229.124 24.192C227.47 24.192 226.644 23.3173 226.644 21.568C226.644 20.7147 226.873 20.112 227.332 19.76C227.79 19.3973 228.494 19.184 229.444 19.12L231.156 18.992V18.496C231.156 18.1653 231.081 17.9413 230.932 17.824C230.782 17.696 230.542 17.632 230.212 17.632L227.204 17.76L227.14 16.272C228.281 15.9627 229.364 15.808 230.388 15.808C231.422 15.808 232.164 16.0213 232.612 16.448C233.07 16.8747 233.3 17.5573 233.3 18.496ZM229.7 20.608C229.102 20.6613 228.804 20.9813 228.804 21.568C228.804 22.1547 229.065 22.448 229.588 22.448C229.993 22.448 230.436 22.384 230.916 22.256L231.156 22.192V20.48L229.7 20.608ZM237.488 24H235.344V12.8H237.488V19.168L238.304 19.024L239.888 16H242.288L240.208 19.792L242.4 24H239.984L238.368 20.88L237.488 21.024V24ZM249.706 18.496V21.824C249.727 22.08 249.77 22.2613 249.834 22.368C249.898 22.464 250.031 22.5333 250.234 22.576L250.17 24.192C249.626 24.192 249.189 24.1547 248.858 24.08C248.538 24.0053 248.213 23.856 247.882 23.632C247.114 24.0053 246.33 24.192 245.53 24.192C243.877 24.192 243.05 23.3173 243.05 21.568C243.05 20.7147 243.279 20.112 243.738 19.76C244.197 19.3973 244.901 19.184 245.85 19.12L247.562 18.992V18.496C247.562 18.1653 247.487 17.9413 247.338 17.824C247.189 17.696 246.949 17.632 246.618 17.632L243.61 17.76L243.546 16.272C244.687 15.9627 245.77 15.808 246.794 15.808C247.829 15.808 248.57 16.0213 249.018 16.448C249.477 16.8747 249.706 17.5573 249.706 18.496ZM246.106 20.608C245.509 20.6613 245.21 20.9813 245.21 21.568C245.21 22.1547 245.471 22.448 245.994 22.448C246.399 22.448 246.842 22.384 247.322 22.256L247.562 22.192V20.48L246.106 20.608ZM253.894 24H251.75V16H253.878V16.448C254.603 16.0213 255.27 15.808 255.878 15.808C256.944 15.808 257.68 16.1227 258.086 16.752C258.491 17.3813 258.694 18.352 258.694 19.664V24H256.55V19.728C256.55 19.0453 256.47 18.544 256.31 18.224C256.15 17.8933 255.83 17.728 255.35 17.728C254.912 17.728 254.491 17.8027 254.086 17.952L253.894 18.016V24ZM268.301 20.832H266.509V24H264.301V13.12H268.301C270.883 13.12 272.173 14.3787 272.173 16.896C272.173 18.1653 271.843 19.1413 271.181 19.824C270.531 20.496 269.571 20.832 268.301 20.832ZM266.509 18.944H268.285C269.384 18.944 269.933 18.2613 269.933 16.896C269.933 16.224 269.8 15.744 269.533 15.456C269.267 15.1573 268.851 15.008 268.285 15.008H266.509V18.944ZM273.531 24V16H275.659V16.848C276.555 16.3147 277.408 15.968 278.219 15.808V17.968C277.355 18.1493 276.614 18.336 275.995 18.528L275.675 18.64V24H273.531ZM279.484 24V16H281.628V24H279.484ZM279.484 14.976V12.8H281.628V14.976H279.484ZM282.857 16H285.097L286.377 22.176H286.825L288.169 16H290.345L288.425 24H284.777L282.857 16ZM297.612 18.496V21.824C297.634 22.08 297.676 22.2613 297.74 22.368C297.804 22.464 297.938 22.5333 298.14 22.576L298.076 24.192C297.532 24.192 297.095 24.1547 296.764 24.08C296.444 24.0053 296.119 23.856 295.788 23.632C295.02 24.0053 294.236 24.192 293.436 24.192C291.783 24.192 290.956 23.3173 290.956 21.568C290.956 20.7147 291.186 20.112 291.644 19.76C292.103 19.3973 292.807 19.184 293.756 19.12L295.468 18.992V18.496C295.468 18.1653 295.394 17.9413 295.244 17.824C295.095 17.696 294.855 17.632 294.524 17.632L291.516 17.76L291.452 16.272C292.594 15.9627 293.676 15.808 294.7 15.808C295.735 15.808 296.476 16.0213 296.924 16.448C297.383 16.8747 297.612 17.5573 297.612 18.496ZM294.012 20.608C293.415 20.6613 293.116 20.9813 293.116 21.568C293.116 22.1547 293.378 22.448 293.9 22.448C294.306 22.448 294.748 22.384 295.228 22.256L295.468 22.192V20.48L294.012 20.608ZM305.4 18C304.077 17.8293 303.149 17.744 302.616 17.744C302.093 17.744 301.752 17.792 301.592 17.888C301.443 17.984 301.368 18.1387 301.368 18.352C301.368 18.5547 301.469 18.6987 301.672 18.784C301.885 18.8587 302.419 18.976 303.272 19.136C304.136 19.2853 304.749 19.536 305.112 19.888C305.475 20.24 305.656 20.8107 305.656 21.6C305.656 23.328 304.584 24.192 302.44 24.192C301.736 24.192 300.883 24.096 299.88 23.904L299.368 23.808L299.432 22.016C300.755 22.1867 301.672 22.272 302.184 22.272C302.707 22.272 303.059 22.224 303.24 22.128C303.432 22.0213 303.528 21.8667 303.528 21.664C303.528 21.4613 303.427 21.312 303.224 21.216C303.032 21.12 302.52 21.0027 301.688 20.864C300.867 20.7253 300.253 20.4907 299.848 20.16C299.443 19.8293 299.24 19.2427 299.24 18.4C299.24 17.5467 299.528 16.9067 300.104 16.48C300.68 16.0427 301.421 15.824 302.328 15.824C302.957 15.824 303.816 15.9253 304.904 16.128L305.432 16.224L305.4 18ZM307.203 24V16H309.347V24H307.203ZM307.203 14.976V12.8H309.347V14.976H307.203Z" fill="white"/>
</svg>
