<svg width="50" height="50" viewBox="0 0 50 50" fill="none" xmlns="http://www.w3.org/2000/svg">
<g clip-path="url(#clip0)">
<path d="M44.0707 45.8453H5.9293C3.89648 45.8453 2.24854 44.1974 2.24854 42.1645V10.4048C2.24854 8.37196 3.89648 6.72401 5.9293 6.72401H44.0707C46.1035 6.72401 47.7515 8.37196 47.7515 10.4048V42.1645C47.7515 44.1974 46.1035 45.8453 44.0707 45.8453Z" fill="url(#paint0_linear)"/>
<path d="M43.2201 44.9728H6.77988C4.8377 44.9728 3.26318 43.3983 3.26318 41.4561V11.113C3.26318 9.17079 4.8376 7.59628 6.77988 7.59628H43.22C45.1622 7.59628 46.7367 9.1707 46.7367 11.113V41.4562C46.7368 43.3984 45.1623 44.9728 43.2201 44.9728Z" fill="url(#paint1_linear)"/>
<path d="M45.2853 16.9972L36.111 1.10694C35.4999 0.0484436 34.1463 -0.314252 33.0878 0.296979L4.16223 16.9972H45.2853Z" fill="url(#paint2_linear)"/>
<path d="M2.24854 29.786H47.7515V17.7341C47.7515 16.2129 46.5184 14.9798 44.9972 14.9798H5.00283C3.48164 14.9798 2.24854 16.2129 2.24854 17.7341V29.786Z" fill="url(#paint3_linear)"/>
<path d="M2.24854 25.2534V42.1645C2.24854 44.1974 3.89648 45.8454 5.92939 45.8454H44.0707C46.1035 45.8454 47.7515 44.1975 47.7515 42.1646V25.2534C47.7515 23.9979 46.7336 22.98 45.478 22.98H4.52197C3.26641 22.98 2.24854 23.9978 2.24854 25.2534Z" fill="url(#paint4_linear)"/>
<path d="M40.8867 16.531V45.8455H44.0708C46.1036 45.8455 47.7516 44.1976 47.7516 42.1648V23.3958L40.8867 16.531Z" fill="url(#paint5_linear)"/>
<path d="M37.7829 49.9724L5.84082 46.2626C3.79316 46.0247 2.24854 44.2904 2.24854 42.229V10.1304C2.24854 10.8202 2.76543 11.4005 3.45049 11.4801L38.7197 15.5764C40.7674 15.8143 42.312 17.5485 42.312 19.61V45.9389C42.312 48.3671 40.1949 50.2526 37.7829 49.9724Z" fill="url(#paint6_linear)"/>
<path d="M37.7829 43.5608L5.84082 39.8511C3.79316 39.6132 2.24854 37.8789 2.24854 35.8175V42.229C2.24854 44.2904 3.79316 46.0248 5.84082 46.2626L37.7829 49.9724C40.1949 50.2525 42.3121 48.3671 42.3121 45.9388V39.5272C42.312 41.9556 40.1949 43.8409 37.7829 43.5608Z" fill="url(#paint7_linear)"/>
<path d="M5.11224 15.1334C5.08548 15.1334 5.05834 15.1318 5.03109 15.1289L3.56937 14.9682C3.16566 14.9237 2.87435 14.5606 2.91878 14.157C2.96322 13.7534 3.3266 13.4624 3.72992 13.5064L5.19164 13.6672C5.59535 13.7116 5.88666 14.0747 5.84222 14.4783C5.80082 14.8548 5.48226 15.1334 5.11224 15.1334Z" fill="url(#paint8_linear)"/>
<path d="M35.1479 47.5499C35.1171 47.5499 35.0856 47.5479 35.0542 47.5439L32.2133 47.1827C31.8105 47.1315 31.5254 46.7634 31.5766 46.3604C31.6279 45.9577 31.996 45.6742 32.3989 45.7238L35.2398 46.0851C35.6426 46.1362 35.9278 46.5044 35.8764 46.9073C35.8291 47.2786 35.5127 47.5499 35.1479 47.5499ZM37.9442 47.1859C37.6684 47.1859 37.4039 47.03 37.2786 46.7638C37.1054 46.3965 37.263 45.9583 37.6303 45.7854C38.3763 45.4338 38.9374 44.8508 39.1697 44.1855C39.3036 43.8023 39.7231 43.6002 40.1063 43.7338C40.4896 43.8677 40.692 44.287 40.5581 44.6704C40.1912 45.721 39.3741 46.5895 38.2571 47.1156C38.1558 47.1633 38.0493 47.1859 37.9442 47.1859ZM29.4662 46.8274C29.4353 46.8274 29.4039 46.8254 29.3724 46.8215L26.5315 46.4603C26.1288 46.4091 25.8435 46.0409 25.8949 45.638C25.9462 45.2353 26.3142 44.9517 26.7172 45.0014L29.5581 45.3626C29.9608 45.4138 30.2461 45.7819 30.1947 46.1849C30.1473 46.5561 29.8307 46.8274 29.4662 46.8274ZM23.7845 46.1049C23.7536 46.1049 23.7222 46.1028 23.6907 46.0989L20.8498 45.7377C20.4471 45.6865 20.1618 45.3184 20.2132 44.9154C20.2644 44.5127 20.6326 44.2277 21.0354 44.2788L23.8763 44.64C24.2791 44.6912 24.5643 45.0594 24.513 45.4623C24.4656 45.8335 24.149 46.1049 23.7845 46.1049ZM18.1025 45.3823C18.0717 45.3823 18.0403 45.3803 18.0088 45.3764L15.1678 45.015C14.7649 44.9638 14.4798 44.5957 14.5311 44.1928C14.5824 43.7899 14.9507 43.5064 15.3534 43.5562L18.1944 43.9175C18.5972 43.9688 18.8824 44.3368 18.831 44.7397C18.7839 45.1111 18.4673 45.3823 18.1025 45.3823ZM12.4208 44.6598C12.3899 44.6598 12.3586 44.6577 12.327 44.6538L9.48602 44.2925C9.08319 44.2412 8.79803 43.8731 8.8494 43.4702C8.90067 43.0674 9.26893 42.7837 9.67166 42.8336L12.5127 43.1949C12.9155 43.2462 13.2007 43.6143 13.1493 44.0172C13.102 44.3886 12.7855 44.6598 12.4208 44.6598ZM40.0289 42.3185C39.6227 42.3185 39.2936 41.9894 39.2936 41.5832V38.7194C39.2936 38.3133 39.6227 37.9842 40.0289 37.9842C40.435 37.9842 40.7641 38.3133 40.7641 38.7194V41.5832C40.7642 41.9894 40.4351 42.3185 40.0289 42.3185ZM40.0289 36.591C39.6227 36.591 39.2936 36.2619 39.2936 35.8558V32.992C39.2936 32.5858 39.6227 32.2567 40.0289 32.2567C40.435 32.2567 40.7641 32.5858 40.7641 32.992V35.8558C40.7642 36.2618 40.4351 36.591 40.0289 36.591ZM40.0289 30.8635C39.6227 30.8635 39.2936 30.5344 39.2936 30.1282V27.2645C39.2936 26.8583 39.6227 26.5292 40.0289 26.5292C40.435 26.5292 40.7641 26.8583 40.7641 27.2645V30.1282C40.7642 30.5343 40.4351 30.8635 40.0289 30.8635ZM40.0289 25.1359C39.6227 25.1359 39.2936 24.8068 39.2936 24.4007V21.5369C39.2936 21.1308 39.6227 20.8017 40.0289 20.8017C40.435 20.8017 40.7641 21.1308 40.7641 21.5369V24.4007C40.7642 24.8067 40.4351 25.1359 40.0289 25.1359ZM39.0006 19.7019C38.819 19.7019 38.6371 19.635 38.495 19.5003C37.95 18.9839 37.1936 18.6549 36.365 18.5737L36.3456 18.5717C35.9418 18.5282 35.6497 18.1656 35.6932 17.7619C35.7367 17.3581 36.0992 17.0659 36.503 17.1096L36.5155 17.1109C37.6607 17.2231 38.7254 17.6929 39.5065 18.4328C39.8013 18.7121 39.8138 19.1775 39.5345 19.4724C39.3898 19.6248 39.1954 19.7019 39.0006 19.7019ZM33.5784 18.263C33.5516 18.263 33.5245 18.2614 33.4972 18.2585L30.6507 17.9455C30.2471 17.9011 29.9556 17.538 30.0001 17.1344C30.0445 16.7308 30.4079 16.4402 30.8112 16.4838L33.6578 16.7968C34.0614 16.8412 34.3528 17.2043 34.3084 17.6079C34.2671 17.9843 33.9484 18.263 33.5784 18.263ZM27.8853 17.637C27.8586 17.637 27.8314 17.6355 27.8042 17.6325L24.9575 17.3195C24.5539 17.2751 24.2625 16.912 24.3069 16.5084C24.3513 16.1047 24.7152 15.8139 25.118 15.8578L27.9647 16.1708C28.3683 16.2152 28.6597 16.5783 28.6153 16.9819C28.5739 17.3584 28.2554 17.637 27.8853 17.637ZM22.192 17.0111C22.1652 17.0111 22.1381 17.0096 22.1108 17.0066L19.2642 16.6937C18.8606 16.6492 18.5692 16.2861 18.6137 15.8825C18.658 15.4789 19.0212 15.1881 19.4248 15.2319L22.2714 15.5449C22.675 15.5894 22.9664 15.9524 22.922 16.3561C22.8806 16.7324 22.5621 17.0111 22.192 17.0111ZM16.4987 16.3853C16.472 16.3853 16.4448 16.3837 16.4176 16.3808L13.571 16.0678C13.1673 16.0233 12.876 15.6603 12.9204 15.2566C12.9647 14.8531 13.3275 14.5624 13.7315 14.6061L16.5781 14.919C16.9817 14.9635 17.2731 15.3266 17.2287 15.7302C17.1875 16.1065 16.8688 16.3853 16.4987 16.3853ZM10.8055 15.7593C10.7787 15.7593 10.7515 15.7577 10.7243 15.7548L7.87772 15.4418C7.47411 15.3974 7.1827 15.0343 7.22713 14.6307C7.27157 14.2272 7.63446 13.9365 8.03827 13.9801L10.8848 14.2931C11.2886 14.3375 11.5799 14.7006 11.5354 15.1042C11.4941 15.4806 11.1755 15.7593 10.8055 15.7593Z" fill="url(#paint9_linear)"/>
<path d="M6.7321 43.9362C6.70124 43.9362 6.66999 43.9343 6.63845 43.9303L5.17956 43.7448C4.77673 43.6936 4.49148 43.3255 4.54285 42.9227C4.59402 42.5198 4.96218 42.2349 5.36501 42.2859L6.8239 42.4714C7.22673 42.5226 7.51199 42.8907 7.46062 43.2936C7.41335 43.6649 7.09675 43.9362 6.7321 43.9362Z" fill="url(#paint10_linear)"/>
<path d="M33.7468 5.4754L29.041 8.03614C28.428 8.36964 27.6607 8.14317 27.3271 7.53018C26.9936 6.9172 27.2201 6.14991 27.8331 5.81632L32.539 3.25567C33.152 2.92217 33.9193 3.14864 34.2529 3.76163C34.5864 4.37452 34.3599 5.1419 33.7468 5.4754Z" fill="#61DB99"/>
<path d="M42.3121 35.5294L37.642 30.8594C36.9832 30.1419 36.0376 29.6919 34.9868 29.6919C32.9959 29.6919 31.3821 31.3059 31.3821 33.2966C31.3821 34.3475 31.8321 35.2931 32.5496 35.9519L42.3122 45.7144V35.5294H42.3121Z" fill="url(#paint11_linear)"/>
<path d="M34.9863 36.9008C36.9771 36.9008 38.591 35.2869 38.591 33.2961C38.591 31.3053 36.9771 29.6914 34.9863 29.6914C32.9955 29.6914 31.3816 31.3053 31.3816 33.2961C31.3816 35.2869 32.9955 36.9008 34.9863 36.9008Z" fill="url(#paint12_linear)"/>
<path d="M34.9862 35.7838C36.3601 35.7838 37.4739 34.67 37.4739 33.2961C37.4739 31.9222 36.3601 30.8084 34.9862 30.8084C33.6123 30.8084 32.4985 31.9222 32.4985 33.2961C32.4985 34.67 33.6123 35.7838 34.9862 35.7838Z" fill="url(#paint13_linear)"/>
<path d="M34.0412 32.8658C34.3255 32.8658 34.556 32.6354 34.556 32.3511C34.556 32.0668 34.3255 31.8363 34.0412 31.8363C33.7569 31.8363 33.5265 32.0668 33.5265 32.3511C33.5265 32.6354 33.7569 32.8658 34.0412 32.8658Z" fill="url(#paint14_linear)"/>
<path d="M35.9314 32.8658C36.2157 32.8658 36.4461 32.6354 36.4461 32.3511C36.4461 32.0668 36.2157 31.8363 35.9314 31.8363C35.6471 31.8363 35.4166 32.0668 35.4166 32.3511C35.4166 32.6354 35.6471 32.8658 35.9314 32.8658Z" fill="url(#paint15_linear)"/>
<path d="M34.0412 34.7569C34.3255 34.7569 34.556 34.5265 34.556 34.2422C34.556 33.9579 34.3255 33.7274 34.0412 33.7274C33.7569 33.7274 33.5265 33.9579 33.5265 34.2422C33.5265 34.5265 33.7569 34.7569 34.0412 34.7569Z" fill="url(#paint16_linear)"/>
<path d="M35.9314 34.7569C36.2157 34.7569 36.4461 34.5265 36.4461 34.2422C36.4461 33.9579 36.2157 33.7274 35.9314 33.7274C35.6471 33.7274 35.4166 33.9579 35.4166 34.2422C35.4166 34.5265 35.6471 34.7569 35.9314 34.7569Z" fill="url(#paint17_linear)"/>
</g>
<defs>
<linearGradient id="paint0_linear" x1="25.7436" y1="4.46907" x2="25.4779" y2="12.2587" gradientUnits="userSpaceOnUse">
<stop stop-color="#FFB92D"/>
<stop offset="1" stop-color="#F59500"/>
</linearGradient>
<linearGradient id="paint1_linear" x1="27.0174" y1="9.64115" x2="26.2939" y2="15.6087" gradientUnits="userSpaceOnUse">
<stop stop-color="#FFB92D"/>
<stop offset="1" stop-color="#F59500"/>
</linearGradient>
<linearGradient id="paint2_linear" x1="24.7232" y1="9.81759" x2="24.7232" y2="14.3636" gradientUnits="userSpaceOnUse">
<stop stop-color="#A7F3CE"/>
<stop offset="1" stop-color="#61DB99"/>
</linearGradient>
<linearGradient id="paint3_linear" x1="24.9995" y1="17.687" x2="24.9995" y2="30.4436" gradientUnits="userSpaceOnUse">
<stop stop-color="#FF4C54"/>
<stop offset="1" stop-color="#BE3F45"/>
</linearGradient>
<linearGradient id="paint4_linear" x1="24.9995" y1="27.1594" x2="24.9995" y2="46.8609" gradientUnits="userSpaceOnUse">
<stop stop-color="#FF4C54"/>
<stop offset="1" stop-color="#BE3F45"/>
</linearGradient>
<linearGradient id="paint5_linear" x1="45.1629" y1="31.1886" x2="41.8433" y2="31.1886" gradientUnits="userSpaceOnUse">
<stop stop-color="#BE3F45" stop-opacity="0"/>
<stop offset="1" stop-color="#BE3F45"/>
</linearGradient>
<linearGradient id="paint6_linear" x1="15.4746" y1="27.7808" x2="32.3615" y2="35.5704" gradientUnits="userSpaceOnUse">
<stop stop-color="#FFB92D"/>
<stop offset="1" stop-color="#F59500"/>
</linearGradient>
<linearGradient id="paint7_linear" x1="21.7419" y1="45.1247" x2="21.0439" y2="50.4599" gradientUnits="userSpaceOnUse">
<stop stop-color="#BE3F45" stop-opacity="0"/>
<stop offset="1" stop-color="#BE3F45"/>
</linearGradient>
<linearGradient id="paint8_linear" x1="4.38036" y1="13.5027" x2="4.38036" y2="47.6206" gradientUnits="userSpaceOnUse">
<stop stop-color="#FFF465"/>
<stop offset="1" stop-color="#FFE600"/>
</linearGradient>
<linearGradient id="paint9_linear" x1="23.9929" y1="13.5038" x2="23.9929" y2="47.5501" gradientUnits="userSpaceOnUse">
<stop stop-color="#FFF465"/>
<stop offset="1" stop-color="#FFE600"/>
</linearGradient>
<linearGradient id="paint10_linear" x1="6.00154" y1="13.5018" x2="6.00154" y2="47.6187" gradientUnits="userSpaceOnUse">
<stop stop-color="#FFF465"/>
<stop offset="1" stop-color="#FFE600"/>
</linearGradient>
<linearGradient id="paint11_linear" x1="39.7972" y1="38.1082" x2="29.6955" y2="28.0065" gradientUnits="userSpaceOnUse">
<stop stop-color="#BE3F45" stop-opacity="0"/>
<stop offset="1" stop-color="#BE3F45"/>
</linearGradient>
<linearGradient id="paint12_linear" x1="34.9855" y1="31.0338" x2="34.9855" y2="36.2464" gradientUnits="userSpaceOnUse">
<stop stop-color="#FF4C54"/>
<stop offset="1" stop-color="#BE3F45"/>
</linearGradient>
<linearGradient id="paint13_linear" x1="34.9855" y1="34.8582" x2="34.9855" y2="31.2612" gradientUnits="userSpaceOnUse">
<stop stop-color="#FF4C54"/>
<stop offset="1" stop-color="#BE3F45"/>
</linearGradient>
<linearGradient id="paint14_linear" x1="29.1617" y1="10.8058" x2="30.1911" y2="15.3518" gradientUnits="userSpaceOnUse">
<stop stop-color="#A7F3CE"/>
<stop offset="1" stop-color="#61DB99"/>
</linearGradient>
<linearGradient id="paint15_linear" x1="31.0518" y1="10.806" x2="32.0812" y2="15.352" gradientUnits="userSpaceOnUse">
<stop stop-color="#A7F3CE"/>
<stop offset="1" stop-color="#61DB99"/>
</linearGradient>
<linearGradient id="paint16_linear" x1="28.7544" y1="10.898" x2="29.7838" y2="15.4439" gradientUnits="userSpaceOnUse">
<stop stop-color="#A7F3CE"/>
<stop offset="1" stop-color="#61DB99"/>
</linearGradient>
<linearGradient id="paint17_linear" x1="30.6445" y1="10.8982" x2="31.6739" y2="15.4442" gradientUnits="userSpaceOnUse">
<stop stop-color="#A7F3CE"/>
<stop offset="1" stop-color="#61DB99"/>
</linearGradient>
<clipPath id="clip0">
<rect width="50" height="50" fill="white"/>
</clipPath>
</defs>
</svg>
