<svg width="79" height="74" viewBox="0 0 79 74" fill="none" xmlns="http://www.w3.org/2000/svg">
<g clip-path="url(#clip0)">
<path d="M79.0015 36.9997C79.0015 57.4343 61.3166 73.9994 39.5018 73.9994C17.6865 73.9994 0.00215149 57.4343 0.00215149 36.9997C0.00215149 16.5651 17.6865 0 39.5018 0C61.3166 0 79.0015 16.5651 79.0015 36.9997Z" fill="#8F95E6"/>
<path d="M39.5007 71.1089C18.2024 71.1089 0.844178 55.3184 0.0335233 35.5544C0.0136336 36.0343 0.000976562 36.5153 0.000976562 36.9997C0.000976562 57.4338 17.6853 73.9995 39.5007 73.9995C61.3154 73.9995 79.0004 57.4338 79.0004 36.9997C79.0004 36.5153 78.9871 36.0343 78.9672 35.5544C78.1566 55.3184 60.7983 71.1089 39.5007 71.1089Z" fill="#9EC0DA"/>
<path d="M49.9034 14.8269C49.4543 13.2009 47.5383 10.8958 40.2792 10.8958C29.0638 10.8958 27.4666 12.4517 24.482 9.76492C21.9638 7.49816 20.4847 18.4079 23.8425 21.8727C22.4255 26.78 23.5592 31.6951 23.5592 31.6951H55.1145C55.1139 31.6951 57.7622 20.214 49.9034 14.8269Z" fill="#9EC0DA"/>
<path d="M24.4814 12.3885C27.4666 15.0753 29.0632 13.5193 40.2786 13.5193C47.5383 13.5193 49.4543 15.8239 49.9028 17.4504C54.0826 20.315 55.2905 24.9033 55.505 28.5719C55.716 24.7769 55.1687 18.4362 49.9028 14.8274C49.4543 13.2009 47.5383 10.8963 40.2786 10.8963C29.0632 10.8963 27.4666 12.4517 24.4814 9.76491C22.8263 8.27501 21.6209 12.4771 21.9415 16.5172C22.1741 13.53 23.1903 11.226 24.4814 12.3885Z" fill="#9EC0DA"/>
<path d="M26.7453 32.211C26.7453 32.211 25.385 29.8771 22.6643 29.8771C19.9436 29.8771 18.0161 41.0816 26.7453 39.214V32.211Z" fill="#FFE4D1"/>
<path d="M51.9274 32.211C51.9274 32.211 53.2878 29.8771 56.0084 29.8771C58.7297 29.8771 60.6566 41.0816 51.9274 39.214V32.211Z" fill="#FFE4D1"/>
<path d="M39.3366 17.197C18.4922 17.197 22.4773 49.2194 39.3366 49.2194C56.1952 49.2194 60.1809 17.197 39.3366 17.197Z" fill="#FFEFE4"/>
<path d="M39.3365 15.4541C39.3365 15.4541 25.1582 13.5803 25.1582 30.6207C25.1582 30.6207 26.9435 23.5777 31.0389 21.6571C32.9465 20.7622 33.6451 23.029 39.3365 23.029C45.0274 23.029 45.7266 20.7622 47.6336 21.6571C51.7296 23.5777 53.5143 30.6207 53.5143 30.6207C53.5143 13.5803 39.3365 15.4541 39.3365 15.4541Z" fill="#9EC0DA"/>
<path d="M68.0182 62.599C67.005 60.2736 64.9467 58.4094 62.2881 57.5907L49.4792 53.6483C48.2707 53.2763 47.4498 52.2245 47.4384 51.0327L47.3926 46.1875C45.2517 47.993 42.5865 49.112 39.4699 49.138C36.3538 49.1634 33.6681 48.0884 31.4929 46.3191L31.5369 50.9943C31.5483 52.2042 30.7226 53.2819 29.4949 53.6596L16.6908 57.593C14.0382 58.4082 11.9817 60.264 10.9643 62.5815C18.1548 69.6172 28.281 73.9994 39.5006 73.9994C50.7099 73.9994 60.8284 69.6246 68.0182 62.599Z" fill="#9EC0DA"/>
<path d="M40.8808 73.9746C41.108 73.9673 41.3353 73.9605 41.5613 73.9498C41.6951 73.9435 41.8283 73.9334 41.9615 73.926C42.1688 73.9142 42.3762 73.9035 42.5829 73.8882C42.7227 73.8781 42.8614 73.8645 43.0012 73.8532C43.2001 73.8368 43.399 73.8216 43.5973 73.8024C43.7401 73.7889 43.8824 73.7719 44.0246 73.7567C44.2181 73.7364 44.4109 73.7166 44.6032 73.6934C44.7479 73.6759 44.8919 73.6556 45.0354 73.6364C45.2246 73.6116 45.4139 73.5873 45.6025 73.5602C45.7466 73.5393 45.8894 73.5156 46.0329 73.4936C46.2203 73.4642 46.4077 73.436 46.594 73.4038C46.7368 73.3795 46.8785 73.353 47.0213 73.3276C47.2069 73.2937 47.392 73.261 47.5764 73.2248C47.7181 73.1977 47.8585 73.1678 47.9995 73.139C48.1833 73.1012 48.3678 73.0634 48.551 73.0233C48.6902 72.9928 48.8289 72.9601 48.9675 72.9284C49.1507 72.8861 49.3339 72.8438 49.5172 72.7992C49.654 72.7653 49.7902 72.7297 49.9264 72.6953C50.109 72.6484 50.2917 72.6016 50.4737 72.5524C50.6075 72.5163 50.7407 72.4779 50.8745 72.4407C51.0571 72.3893 51.2397 72.3379 51.4211 72.2843C51.5519 72.2453 51.6821 72.2052 51.8123 72.1651C51.9949 72.1093 52.177 72.0528 52.3584 71.9941C52.4861 71.9529 52.6127 71.9105 52.7399 71.8682C52.9225 71.8078 53.1045 71.7457 53.286 71.683C53.4101 71.6395 53.5343 71.5949 53.6584 71.5503C53.8399 71.4848 54.0213 71.4188 54.2021 71.351C54.3232 71.3053 54.4444 71.2584 54.5649 71.2122C54.7469 71.1416 54.9284 71.0699 55.1092 70.9971C55.2267 70.9502 55.343 70.9022 55.4594 70.8537C55.642 70.7786 55.8234 70.7018 56.0042 70.6239C56.1175 70.5748 56.2308 70.5256 56.3429 70.4754C56.5262 70.3947 56.7088 70.3122 56.8902 70.2287C56.9987 70.179 57.1066 70.1287 57.2145 70.0779C57.3983 69.9916 57.5809 69.9035 57.7629 69.8148C57.8672 69.7635 57.9715 69.7121 58.0751 69.6601C58.259 69.5681 58.4416 69.475 58.6236 69.3807C58.7237 69.3287 58.8237 69.2762 58.9238 69.2232C59.107 69.1261 59.2902 69.0273 59.4716 68.9268C59.5675 68.8743 59.6633 68.8218 59.7591 68.7681C59.9436 68.6648 60.1274 68.5592 60.31 68.4531C60.4004 68.4006 60.4908 68.3475 60.5806 68.2945C60.7663 68.1844 60.9507 68.0726 61.1339 67.9597C61.2195 67.9072 61.3051 67.8552 61.3901 67.8021C61.5763 67.6858 61.7614 67.5673 61.9452 67.4482C62.0254 67.3957 62.1061 67.3443 62.1857 67.2918C62.3737 67.1681 62.56 67.0422 62.745 66.9158C62.8191 66.8655 62.8933 66.8153 62.9668 66.7645C63.1567 66.6329 63.3447 66.4991 63.5322 66.3642C63.5991 66.3162 63.6666 66.2682 63.7335 66.2197C63.9257 66.0796 64.1156 65.9374 64.3048 65.7945C64.3651 65.7488 64.4266 65.7036 64.4869 65.6573C64.6821 65.5077 64.8756 65.3559 65.0679 65.2023C65.1197 65.1611 65.1721 65.1204 65.2234 65.0792C65.4235 64.9178 65.6212 64.7546 65.8177 64.5903C65.8604 64.5542 65.9038 64.5192 65.946 64.483C66.1516 64.3097 66.3541 64.1341 66.5554 63.9569C66.5879 63.9281 66.6211 63.8998 66.6536 63.8716C66.8676 63.6819 67.0785 63.4894 67.2883 63.2952C67.3064 63.2777 67.3257 63.2613 67.3443 63.2444C67.5704 63.0332 67.794 62.8204 68.0152 62.6041C68.0164 62.603 68.0176 62.6019 68.0182 62.6013C67.7313 61.9419 67.357 61.3214 66.9122 60.7495C59.8092 67.1631 50.147 71.1088 39.5006 71.1088C28.8464 71.1088 19.1782 67.1574 12.0745 60.7343C11.6285 61.3045 11.253 61.9238 10.9643 62.5816C10.9661 62.5838 10.9692 62.5861 10.971 62.5878C11.1904 62.8023 11.4128 63.0146 11.6376 63.2246C11.6629 63.2483 11.6894 63.2715 11.7147 63.2952C11.9172 63.4826 12.121 63.6689 12.3277 63.8524C12.3693 63.8891 12.4115 63.9252 12.4531 63.9614C12.6453 64.1307 12.8388 64.299 13.0347 64.465C13.0871 64.5096 13.1402 64.5525 13.1932 64.5971C13.3794 64.7535 13.5669 64.9087 13.7567 65.0612C13.8182 65.1114 13.8815 65.16 13.9436 65.2091C14.1256 65.3542 14.3088 65.4987 14.4939 65.6404C14.5638 65.6946 14.6355 65.7471 14.7054 65.8002C14.885 65.9357 15.0646 66.0706 15.2466 66.2033C15.3232 66.2597 15.4009 66.3139 15.4781 66.3698C15.6553 66.4974 15.8337 66.6245 16.0139 66.7492C16.0965 66.8068 16.1809 66.8633 16.264 66.9203C16.44 67.0405 16.6166 67.1597 16.7944 67.2771C16.8836 67.3358 16.974 67.3934 17.0638 67.4515C17.238 67.565 17.414 67.6774 17.5906 67.788C17.6846 67.8467 17.7793 67.9043 17.8739 67.9625C18.0481 68.0698 18.2229 68.1759 18.3989 68.2809C18.4983 68.3396 18.5984 68.3978 18.6984 68.4559C18.872 68.557 19.0462 68.6569 19.221 68.7551C19.3252 68.8133 19.4301 68.8709 19.5344 68.9285C19.7074 69.0239 19.8821 69.1182 20.0569 69.2113C20.1648 69.2689 20.2727 69.3248 20.3812 69.3813C20.5554 69.4716 20.7302 69.5613 20.9062 69.6489C21.0171 69.7047 21.1292 69.7595 21.2407 69.8143C21.4155 69.8995 21.5902 69.9836 21.7662 70.0672C21.8814 70.1214 21.9977 70.1756 22.114 70.2287C22.2882 70.3088 22.4636 70.3884 22.639 70.4658C22.7583 70.5189 22.8777 70.5714 22.9976 70.6227C23.1724 70.6978 23.3472 70.7724 23.5232 70.8452C23.6461 70.896 23.7691 70.9468 23.8926 70.9965C24.0674 71.0671 24.2428 71.1359 24.4194 71.2042C24.5454 71.2534 24.6725 71.3019 24.7997 71.3499C24.9745 71.4154 25.1499 71.4798 25.3259 71.543C25.4555 71.5899 25.5851 71.6361 25.7158 71.6819C25.8918 71.7429 26.0684 71.8027 26.245 71.862C26.377 71.906 26.5096 71.95 26.6422 71.993C26.8188 72.05 26.996 72.1047 27.1738 72.1595C27.3088 72.2007 27.4438 72.2425 27.5795 72.2826C27.7567 72.3351 27.9345 72.3853 28.1123 72.4356C28.2503 72.4745 28.3877 72.5135 28.5269 72.5513C28.7047 72.5993 28.8837 72.645 29.0621 72.6913C29.2026 72.7269 29.3418 72.7636 29.4822 72.798C29.6618 72.8415 29.8421 72.8833 30.0223 72.9251C30.1639 72.9578 30.3055 72.9911 30.4478 73.0222C30.628 73.0617 30.8094 73.0989 30.9908 73.1362C31.1349 73.1656 31.2783 73.1961 31.423 73.2243C31.6044 73.2593 31.787 73.292 31.969 73.3253C32.1143 73.3513 32.2596 73.3784 32.4054 73.4033C32.5886 73.4349 32.7731 73.4625 32.9575 73.4913C33.104 73.5145 33.2498 73.5382 33.3969 73.5596C33.5831 73.5867 33.77 73.6105 33.9568 73.6353C34.1033 73.6545 34.2491 73.6754 34.3962 73.6929C34.5854 73.7155 34.7765 73.7352 34.9676 73.7555C35.1128 73.7714 35.2575 73.7883 35.4033 73.8024C35.5986 73.821 35.7951 73.8363 35.9916 73.8527C36.1332 73.8645 36.2749 73.8775 36.4177 73.8882C36.6232 73.9035 36.8294 73.9136 37.0361 73.926C37.1699 73.9339 37.3043 73.9435 37.4387 73.9498C37.6683 73.961 37.8992 73.9678 38.1294 73.9752C38.2421 73.9786 38.3536 73.9842 38.4663 73.987C38.8099 73.9955 39.1546 74 39.5006 74C39.846 74 40.1907 73.9955 40.5343 73.9876C40.65 73.9842 40.7651 73.9786 40.8808 73.9746Z" fill="#B3DAFE"/>
<path d="M39.0299 64.1471C45.5977 64.1471 51.2 60.2854 53.3981 54.8548L49.4786 53.6483C48.2702 53.2763 47.4493 52.2239 47.4384 51.0327L47.3926 46.1875C45.2511 47.993 42.5865 49.112 39.4699 49.138C36.3532 49.1634 33.6675 48.0884 31.4929 46.3191L31.5369 50.9943C31.5484 52.2042 30.7226 53.2819 29.4949 53.6596L24.7696 55.1111C27.0382 60.4063 32.5657 64.1471 39.0299 64.1471Z" fill="#FFE4D1"/>
<path d="M39.5018 2.8906C60.7995 2.8906 78.1577 18.6811 78.9684 38.445C78.9883 37.9651 79.0015 37.4841 79.0015 36.9997C79.0015 16.5656 61.3166 0 39.5018 0C17.6865 0 0.00215149 16.5656 0.00215149 36.9997C0.00215149 37.4841 0.0148086 37.9651 0.0346983 38.445C0.845353 18.6811 18.2036 2.8906 39.5018 2.8906Z" fill="#9FA5FF"/>
</g>
<defs>
<clipPath id="clip0">
<rect width="79" height="74" fill="white"/>
</clipPath>
</defs>
</svg>
